# Blender 5.0.1
# www.blender.org
mtllib camp_bed.mtl
o SM_Prop_CampBed_01.001
v -0.536257 0.618950 1.490656
v 0.536257 0.618950 1.490656
v -0.536257 0.704130 1.490656
v 0.536257 0.704130 1.490656
v -0.536257 0.704129 -1.494242
v 0.536257 0.704129 -1.494242
v -0.536257 0.618949 -1.494242
v 0.536257 0.618949 -1.494242
v 0.536257 0.704129 -0.000000
v -0.536257 0.704129 -0.000000
v -0.536257 0.618949 -0.000000
v 0.536257 0.618949 -0.000000
v 0.536257 0.671326 0.761240
v -0.536257 0.671326 0.761240
v -0.536257 0.586146 0.761240
v 0.536257 0.586146 0.761240
v 0.536257 0.671326 -0.761240
v -0.536257 0.671326 -0.761240
v -0.536257 0.586146 -0.761240
v 0.536257 0.586146 -0.761240
v 0.549654 0.548863 1.510587
v -0.560977 0.548863 1.510587
v 0.549654 0.630166 1.510587
v -0.560977 0.630166 1.510587
v 0.549654 0.630166 1.455443
v -0.560977 0.630166 1.455443
v 0.549654 0.548863 1.455443
v -0.560977 0.548863 1.455443
v -0.546195 0.548863 1.455443
v -0.546195 0.548863 -1.459029
v -0.546195 0.630166 1.455442
v -0.546195 0.630165 -1.459029
v -0.494195 0.630166 1.455442
v -0.494195 0.630165 -1.459029
v -0.494195 0.548863 1.455443
v -0.494195 0.548863 -1.459029
v 0.493298 0.548863 1.455443
v 0.493298 0.548863 -1.459029
v 0.493298 0.630166 1.455442
v 0.493298 0.630165 -1.459029
v 0.545297 0.630166 1.455442
v 0.545297 0.630165 -1.459029
v 0.545297 0.548863 1.455443
v 0.545297 0.548863 -1.459029
v 0.549654 0.548863 -1.459029
v -0.560977 0.548863 -1.459029
v 0.549654 0.630165 -1.459029
v -0.560977 0.630165 -1.459029
v 0.549654 0.630165 -1.514173
v -0.560977 0.630165 -1.514173
v 0.549654 0.548863 -1.514173
v -0.560977 0.548863 -1.514173
v 0.412015 0.000000 1.506787
v 0.539325 0.000000 1.506787
v -0.539325 0.555399 1.506787
v -0.412015 0.555399 1.506787
v -0.539325 0.555399 1.450310
v -0.412015 0.555399 1.450310
v 0.412015 0.000000 1.450310
v 0.539325 0.000000 1.450310
v -0.412015 0.000000 1.480633
v -0.539325 0.000000 1.480633
v 0.539325 0.555399 1.480633
v 0.412015 0.555399 1.480633
v 0.539325 0.555399 1.424156
v 0.412015 0.555399 1.424156
v -0.412015 0.000000 1.424156
v -0.539325 0.000000 1.424156
v 0.412015 -0.000000 0.041315
v 0.539325 -0.000000 0.041315
v -0.539325 0.555399 0.041315
v -0.412015 0.555399 0.041315
v -0.539325 0.555399 -0.015162
v -0.412015 0.555399 -0.015162
v 0.412015 -0.000000 -0.015162
v 0.539325 -0.000000 -0.015162
v -0.412015 -0.000000 0.015161
v -0.539325 -0.000000 0.015161
v 0.539325 0.555399 0.015161
v 0.412015 0.555399 0.015161
v 0.539325 0.555399 -0.041315
v 0.412015 0.555399 -0.041315
v -0.412015 -0.000000 -0.041315
v -0.539325 -0.000000 -0.041315
v 0.412015 -0.000000 -1.452927
v 0.539325 -0.000000 -1.452927
v -0.539325 0.555399 -1.452927
v -0.412015 0.555399 -1.452927
v -0.539325 0.555399 -1.509404
v -0.412015 0.555399 -1.509404
v 0.412015 -0.000000 -1.509404
v 0.539325 -0.000000 -1.509404
v -0.412015 -0.000000 -1.479081
v -0.539325 -0.000000 -1.479081
v 0.539325 0.555399 -1.479081
v 0.412015 0.555399 -1.479081
v 0.539325 0.555399 -1.535557
v 0.412015 0.555399 -1.535557
v -0.412015 -0.000000 -1.535557
v -0.539325 -0.000000 -1.535557
vn -0.0000 -0.0000 1.0000
vn -0.0000 0.9990 -0.0449
vn -0.0000 -0.0000 -1.0000
vn -0.0000 -0.9990 0.0449
vn 1.0000 -0.0000 -0.0000
vn -1.0000 -0.0000 -0.0000
vn -0.0000 0.9991 -0.0431
vn -0.0000 -0.9991 0.0431
vn -0.0000 0.9991 0.0431
vn -0.0000 -0.9991 -0.0431
vn -0.0000 0.9990 0.0447
vn -0.0000 -0.9990 -0.0447
vn -0.0000 -1.0000 -0.0000
vn -0.0000 1.0000 -0.0000
vn 0.5042 0.8636 -0.0000
vn -0.5042 -0.8636 -0.0000
vn -0.5042 0.8636 -0.0000
vn 0.5042 -0.8636 -0.0000
vt 0.068758 0.327902
vt 0.069226 0.327834
vt 0.069226 0.327871
vt 0.068758 0.327939
vt 0.069371 0.327956
vt 0.068903 0.328024
vt 0.069336 0.328336
vt 0.069804 0.328268
vt 0.069804 0.328231
vt 0.069336 0.328299
vt 0.068903 0.327987
vt 0.069371 0.327919
vt 0.069047 0.328137
vt 0.069515 0.328070
vt 0.069659 0.328155
vt 0.069192 0.328222
vt 0.069192 0.328185
vt 0.069047 0.328100
vt 0.069659 0.328118
vt 0.069515 0.328033
vt 0.005065 0.327506
s 1
f 1/1/1 2/2/1 4/3/1 3/4/1
f 3/4/2 4/3/2 13/5/2 14/6/2
f 5/7/3 6/8/3 8/9/3 7/10/3
f 15/11/4 16/12/4 2/2/4 1/1/4
f 2/2/5 16/12/5 13/5/5 4/3/5
f 15/11/6 1/1/6 3/4/6 14/6/6
f 10/13/7 9/14/7 17/15/7 18/16/7
f 19/17/6 11/18/6 10/13/6 18/16/6
f 19/17/8 20/19/8 12/20/8 11/18/8
f 9/14/5 12/20/5 20/19/5 17/15/5
f 14/6/9 13/5/9 9/14/9 10/13/9
f 11/18/6 15/11/6 14/6/6 10/13/6
f 11/18/10 12/20/10 16/12/10 15/11/10
f 13/5/5 16/12/5 12/20/5 9/14/5
f 18/16/11 17/15/11 6/8/11 5/7/11
f 7/10/6 19/17/6 18/16/6 5/7/6
f 7/10/12 8/9/12 20/19/12 19/17/12
f 17/15/5 20/19/5 8/9/5 6/8/5
f 21/21/1 23/21/1 24/21/1 22/21/1
f 25/21/3 27/21/3 28/21/3 26/21/3
f 27/21/13 21/21/13 22/21/13 28/21/13
f 22/21/6 24/21/6 26/21/6 28/21/6
f 27/21/5 25/21/5 23/21/5 21/21/5
f 23/21/14 25/21/14 26/21/14 24/21/14
f 29/21/6 31/21/6 32/21/6 30/21/6
f 33/21/5 35/21/5 36/21/5 34/21/5
f 35/21/13 29/21/13 30/21/13 36/21/13
f 30/21/3 32/21/3 34/21/3 36/21/3
f 35/21/1 33/21/1 31/21/1 29/21/1
f 31/21/14 33/21/14 34/21/14 32/21/14
f 37/21/6 39/21/6 40/21/6 38/21/6
f 41/21/5 43/21/5 44/21/5 42/21/5
f 43/21/13 37/21/13 38/21/13 44/21/13
f 38/21/3 40/21/3 42/21/3 44/21/3
f 43/21/1 41/21/1 39/21/1 37/21/1
f 39/21/14 41/21/14 42/21/14 40/21/14
f 45/21/1 47/21/1 48/21/1 46/21/1
f 49/21/3 51/21/3 52/21/3 50/21/3
f 51/21/13 45/21/13 46/21/13 52/21/13
f 46/21/6 48/21/6 50/21/6 52/21/6
f 51/21/5 49/21/5 47/21/5 45/21/5
f 47/21/14 49/21/14 50/21/14 48/21/14
f 53/21/1 54/21/1 56/21/1 55/21/1
f 57/21/3 58/21/3 60/21/3 59/21/3
f 59/21/13 60/21/13 54/21/13 53/21/13
f 54/21/15 60/21/15 58/21/15 56/21/15
f 59/21/16 53/21/16 55/21/16 57/21/16
f 55/21/14 56/21/14 58/21/14 57/21/14
f 61/21/1 63/21/1 64/21/1 62/21/1
f 65/21/3 67/21/3 68/21/3 66/21/3
f 67/21/13 61/21/13 62/21/13 68/21/13
f 62/21/17 64/21/17 66/21/17 68/21/17
f 67/21/18 65/21/18 63/21/18 61/21/18
f 63/21/14 65/21/14 66/21/14 64/21/14
f 69/21/1 70/21/1 72/21/1 71/21/1
f 73/21/3 74/21/3 76/21/3 75/21/3
f 75/21/13 76/21/13 70/21/13 69/21/13
f 70/21/15 76/21/15 74/21/15 72/21/15
f 75/21/16 69/21/16 71/21/16 73/21/16
f 71/21/14 72/21/14 74/21/14 73/21/14
f 77/21/1 79/21/1 80/21/1 78/21/1
f 81/21/3 83/21/3 84/21/3 82/21/3
f 83/21/13 77/21/13 78/21/13 84/21/13
f 78/21/17 80/21/17 82/21/17 84/21/17
f 83/21/18 81/21/18 79/21/18 77/21/18
f 79/21/14 81/21/14 82/21/14 80/21/14
f 85/21/1 86/21/1 88/21/1 87/21/1
f 89/21/3 90/21/3 92/21/3 91/21/3
f 91/21/13 92/21/13 86/21/13 85/21/13
f 86/21/15 92/21/15 90/21/15 88/21/15
f 91/21/16 85/21/16 87/21/16 89/21/16
f 87/21/14 88/21/14 90/21/14 89/21/14
f 93/21/1 95/21/1 96/21/1 94/21/1
f 97/21/3 99/21/3 100/21/3 98/21/3
f 99/21/13 93/21/13 94/21/13 100/21/13
f 94/21/17 96/21/17 98/21/17 100/21/17
f 99/21/18 97/21/18 95/21/18 93/21/18
f 95/21/14 97/21/14 98/21/14 96/21/14
