# Blender 5.0.1
# www.blender.org
mtllib chest.mtl
o SM_Prop_Chest_01.001
v 0.364371 0.412129 -0.305809
v 0.364371 0.412129 -0.274564
v 0.364371 0.498726 -0.305809
v 0.364371 0.498726 -0.274564
v 0.277775 0.498726 -0.305809
v 0.277775 0.498726 -0.274564
v 0.277775 0.412129 -0.305809
v 0.277775 0.412129 -0.274564
v 0.299953 0.361228 -0.305809
v 0.299953 0.361228 -0.274564
v 0.342193 0.361228 -0.274564
v 0.342193 0.361228 -0.305809
v -0.277775 0.412129 -0.305809
v -0.277775 0.412129 -0.274564
v -0.277775 0.498726 -0.305809
v -0.277775 0.498726 -0.274564
v -0.364371 0.498726 -0.305809
v -0.364371 0.498726 -0.274564
v -0.364371 0.412129 -0.305809
v -0.364371 0.412129 -0.274564
v -0.342194 0.361228 -0.305809
v -0.342194 0.361228 -0.274564
v -0.299953 0.361228 -0.274564
v -0.299953 0.361228 -0.305809
v 0.364371 0.412129 0.305809
v 0.364371 0.412129 0.274564
v 0.364371 0.498726 0.305809
v 0.364371 0.498726 0.274564
v 0.277775 0.498726 0.305809
v 0.277775 0.498726 0.274564
v 0.277775 0.412129 0.305809
v 0.277775 0.412129 0.274564
v 0.299953 0.361229 0.305809
v 0.299953 0.361229 0.274564
v 0.342193 0.361229 0.274564
v 0.342193 0.361229 0.305809
v -0.277775 0.412129 0.305809
v -0.277775 0.412129 0.274564
v -0.277775 0.498726 0.305809
v -0.277775 0.498726 0.274564
v -0.364371 0.498726 0.305809
v -0.364371 0.498726 0.274564
v -0.364371 0.412129 0.305809
v -0.364371 0.412129 0.274564
v -0.342194 0.361229 0.305809
v -0.342194 0.361229 0.274564
v -0.299953 0.361229 0.274564
v -0.299953 0.361229 0.305809
v 0.493178 0.020006 -0.274564
v 0.493178 0.020006 0.274564
v 0.493178 0.477524 0.274564
v 0.493178 0.593132 0.274564
v 0.493178 0.650613 -0.109826
v 0.493178 0.593132 -0.274564
v -0.493178 0.593132 -0.274564
v -0.493178 0.650613 -0.109826
v -0.493178 0.593132 0.274564
v -0.493178 0.477524 0.274564
v -0.493178 0.020006 0.274564
v -0.493178 0.020006 -0.274564
v -0.075028 0.020006 -0.274564
v -0.075028 0.020006 0.274564
v -0.075028 0.477524 0.274564
v -0.075028 0.605654 0.274564
v -0.075028 0.678731 -0.109826
v -0.075028 0.605654 -0.274564
v 0.075028 0.605654 -0.274564
v 0.075028 0.678731 -0.109826
v 0.075028 0.605654 0.274564
v 0.075028 0.477524 0.274564
v 0.075028 0.020006 0.274564
v 0.075028 0.020006 -0.274564
v -0.493178 0.431342 0.274564
v -0.075028 0.431342 0.274564
v 0.075028 0.431342 0.274564
v 0.493178 0.431342 0.274564
v 0.493178 0.431342 -0.274564
v 0.075028 0.431342 -0.274564
v -0.075028 0.431342 -0.274564
v -0.493178 0.431342 -0.274564
v 0.563047 0.431342 0.235307
v 0.563047 0.431342 -0.235307
v 0.563047 0.477524 -0.235307
v 0.563047 0.477524 0.235307
v 0.563047 0.550451 -0.235307
v 0.563047 0.597179 -0.094123
v 0.563047 0.597179 0.094123
v 0.563047 0.550451 0.235307
v 0.563047 0.060812 0.235307
v 0.563047 0.060812 -0.235307
v -0.563047 0.477524 0.235307
v -0.563047 0.477524 -0.235307
v -0.563047 0.431342 -0.235307
v -0.563047 0.431342 0.235307
v -0.563047 0.550451 0.235307
v -0.563047 0.597179 0.094123
v -0.563047 0.597179 -0.094123
v -0.563047 0.550451 -0.235307
v -0.563047 0.060812 -0.235307
v -0.563047 0.060812 0.235307
v 0.075028 0.203083 -0.274564
v -0.075028 0.203083 -0.274564
v -0.493178 0.203083 -0.274564
v -0.563047 0.203083 -0.235307
v -0.563047 0.203083 0.235307
v -0.493178 0.203083 0.274564
v -0.075028 0.203083 0.274564
v 0.075028 0.203083 0.274564
v 0.493178 0.203083 0.274564
v 0.563047 0.203083 0.235307
v 0.563047 0.203083 -0.235307
v 0.493178 0.203083 -0.274564
v -0.075028 0.477524 -0.274564
v -0.493178 0.477524 -0.274564
v 0.493178 0.477524 -0.274564
v 0.075028 0.477524 -0.274564
v -0.493178 0.650613 0.109826
v -0.075028 0.678731 0.109826
v 0.075028 0.678731 0.109826
v 0.493178 0.650613 0.109826
v 0.588310 0.436000 0.251018
v 0.588310 0.436000 -0.251018
v 0.588171 0.470889 -0.251368
v 0.588171 0.470889 0.251368
v -0.588171 0.470889 0.251368
v -0.588171 0.470889 -0.251368
v -0.588310 0.436000 -0.251018
v -0.588310 0.436000 0.251018
v -0.056652 0.482212 -0.300296
v -0.056652 0.427597 -0.300642
v -0.518867 0.427597 -0.299828
v -0.518727 0.480383 -0.299780
v -0.518727 0.480383 0.299780
v -0.518867 0.427597 0.299828
v -0.056652 0.427597 0.300641
v -0.056652 0.482212 0.300296
v 0.056652 0.482212 0.300296
v 0.056652 0.427597 0.300641
v 0.518867 0.427597 0.299828
v 0.518727 0.480383 0.299780
v 0.518727 0.480383 -0.299780
v 0.518867 0.427597 -0.299828
v 0.056652 0.427597 -0.300642
v 0.056652 0.482212 -0.300296
v 0.506910 -0.000000 -0.295604
v 0.506910 0.000000 0.295604
v 0.572211 0.001156 -0.295416
v 0.572211 0.001156 0.295416
v 0.575042 0.422036 0.289005
v 0.574890 0.484678 0.288976
v 0.508618 0.601772 0.287230
v 0.573632 0.588753 0.283106
v 0.575487 0.645445 0.108904
v 0.510821 0.664281 0.111416
v 0.510821 0.664281 -0.111416
v 0.575487 0.645445 -0.108904
v 0.508618 0.601772 -0.287230
v 0.573632 0.588753 -0.283106
v 0.574890 0.484678 -0.288976
v 0.575042 0.422036 -0.289005
v -0.575487 0.645445 -0.108904
v -0.510821 0.664281 -0.111416
v -0.508618 0.601772 -0.287230
v -0.573632 0.588753 -0.283106
v -0.510821 0.664281 0.111416
v -0.575487 0.645445 0.108904
v -0.508618 0.601772 0.287230
v -0.573632 0.588753 0.283106
v -0.574890 0.484678 0.288976
v -0.575042 0.422036 0.289005
v -0.572211 0.001156 0.295416
v -0.572211 0.001156 -0.295416
v -0.506910 -0.000000 -0.295604
v -0.506910 0.000000 0.295604
v -0.575042 0.422036 -0.289005
v -0.574890 0.484678 -0.288976
v -0.058394 0.000125 0.296342
v 0.058394 0.000125 0.296342
v -0.058394 0.000125 -0.296342
v 0.058394 0.000125 -0.296342
v -0.058394 0.614979 0.288613
v 0.058394 0.614979 0.288613
v -0.058394 0.694370 0.111979
v 0.058394 0.694370 0.111979
v -0.058394 0.694370 -0.111978
v 0.058394 0.694370 -0.111978
v -0.058394 0.614979 -0.288613
v 0.058394 0.614979 -0.288613
v -0.574928 0.201042 0.288689
v -0.507185 0.200416 0.299153
v -0.058394 0.200411 0.299600
v 0.058394 0.200411 0.299600
v 0.507185 0.200416 0.299153
v 0.574928 0.201042 0.288689
v 0.574928 0.201042 -0.288689
v 0.507185 0.200416 -0.299153
v 0.058394 0.200411 -0.299600
v -0.058394 0.200411 -0.299600
v -0.507185 0.200416 -0.299153
v -0.574928 0.201042 -0.288689
v 0.587774 0.564598 -0.245701
v 0.587701 0.610284 -0.099163
v 0.587701 0.610284 0.099163
v 0.587774 0.564598 0.245701
v 0.587454 0.049186 -0.249404
v 0.587454 0.049186 0.249404
v 0.587548 0.201638 -0.244888
v 0.587548 0.201638 0.244888
v -0.587701 0.610284 0.099163
v -0.587774 0.564598 0.245701
v -0.587701 0.610284 -0.099163
v -0.587774 0.564598 -0.245701
v -0.587548 0.201638 -0.244888
v -0.587454 0.049186 0.249404
v -0.587454 0.049186 -0.249404
v -0.587547 0.201638 0.244888
vn 1.0000 -0.0000 -0.0000
vn -0.0000 1.0000 -0.0000
vn -1.0000 -0.0000 -0.0000
vn -0.0000 -1.0000 -0.0000
vn -0.0000 -0.0000 -1.0000
vn -0.9168 -0.3994 -0.0000
vn 0.9168 -0.3994 -0.0000
vn -0.0000 -0.0000 1.0000
vn 1.0000 0.0040 -0.0000
vn -0.0451 0.9287 -0.3680
vn -1.0000 0.0040 -0.0000
vn -0.0007 0.0050 -1.0000
vn -0.0005 0.0018 -1.0000
vn -0.0014 0.0037 -1.0000
vn -0.0014 0.0037 1.0000
vn -0.0005 0.0018 1.0000
vn -0.0007 0.0050 1.0000
vn -0.0451 0.9287 0.3680
vn -0.0671 0.9977 -0.0000
vn 0.0007 0.0050 1.0000
vn 0.0005 0.0018 1.0000
vn 0.0014 0.0037 1.0000
vn 0.0451 0.9287 0.3680
vn 0.0671 0.9977 -0.0000
vn 0.0451 0.9287 -0.3680
vn 0.0014 0.0037 -1.0000
vn 0.0005 0.0018 -1.0000
vn 0.0007 0.0050 -1.0000
vn 0.0177 -0.9998 -0.0000
vn 0.1891 0.0011 0.9820
vn 0.1280 0.0872 0.9879
vn 0.2416 0.9177 0.3153
vn 0.2797 0.9601 -0.0000
vn 0.2416 0.9177 -0.3153
vn 0.1280 0.0872 -0.9879
vn 0.1891 0.0011 -0.9820
vn -0.2416 0.9177 -0.3153
vn -0.2797 0.9601 -0.0000
vn -0.2416 0.9177 0.3153
vn -0.1280 0.0872 0.9879
vn -0.1891 0.0011 0.9820
vn -0.0177 -0.9998 -0.0000
vn -0.1891 0.0011 -0.9820
vn -0.1280 0.0872 -0.9879
vn -0.0000 0.0877 0.9962
vn -0.0000 0.9121 0.4100
vn -0.0000 0.9121 -0.4100
vn -0.0000 0.0877 -0.9962
vn -0.1690 -0.0066 0.9856
vn -0.0000 -0.0104 0.9999
vn 0.1690 -0.0066 0.9856
vn 0.1690 -0.0066 -0.9856
vn -0.0000 -0.0104 -0.9999
vn -0.1690 -0.0066 -0.9856
vn 0.9435 0.0017 -0.3314
vn 0.9435 0.0017 0.3314
vn 0.9432 0.0272 -0.3311
vn 0.9378 0.3291 -0.1103
vn 0.9446 0.3282 -0.0000
vn 0.9378 0.3291 0.1103
vn 0.9432 0.0272 0.3311
vn 0.9532 -0.3025 -0.0000
vn 0.9542 -0.0022 -0.2990
vn 0.9543 -0.0020 -0.2990
vn 0.9537 -0.0061 -0.3008
vn 0.9537 -0.0061 0.3008
vn 0.9543 -0.0020 0.2990
vn 0.9542 -0.0022 0.2990
vn -0.9435 0.0017 -0.3314
vn -0.9435 0.0017 0.3314
vn -0.9378 0.3291 0.1103
vn -0.9446 0.3282 -0.0000
vn -0.9378 0.3291 -0.1103
vn -0.9432 0.0272 -0.3311
vn -0.9432 0.0272 0.3311
vn -0.9537 -0.0061 -0.3008
vn -0.9543 -0.0020 -0.2990
vn -0.9542 -0.0022 -0.2990
vn -0.9532 -0.3025 -0.0000
vn -0.9542 -0.0022 0.2990
vn -0.9543 -0.0020 0.2990
vn -0.9537 -0.0061 0.3008
vn -0.0000 -0.0163 -0.9999
vn -0.0797 0.0073 -0.9968
vn -0.9548 0.0019 -0.2972
vn -0.9548 0.0019 0.2972
vn -0.0797 0.0073 0.9968
vn -0.0000 -0.0163 0.9999
vn 0.0797 0.0073 0.9968
vn 0.9548 0.0019 0.2972
vn 0.9548 0.0019 -0.2972
vn 0.0797 0.0073 -0.9968
vn 0.1813 -0.9834 -0.0000
vn 0.2553 0.9669 -0.0000
vn -0.2553 0.9669 -0.0000
vn -0.1813 -0.9834 -0.0000
vn 0.0001 -0.9895 0.1443
vn -0.0020 0.9892 0.1468
vn 0.0001 -0.9895 -0.1443
vn -0.0020 0.9892 -0.1468
vn -0.0001 -0.9895 -0.1443
vn 0.0020 0.9892 -0.1468
vn -0.0001 -0.9895 0.1443
vn 0.0020 0.9892 0.1468
vn -0.8849 -0.4419 0.1471
vn -0.8849 -0.4419 -0.1471
vn -0.8877 -0.4331 -0.1566
vn -0.8877 -0.4330 0.1566
vn -0.7174 0.4475 0.5339
vn -0.6802 0.0098 0.7330
vn -0.7201 0.4218 0.5509
vn -0.6185 0.7772 0.1157
vn -0.6184 0.7781 0.1100
vn -0.6185 0.7772 -0.1157
vn -0.6184 0.7781 -0.1100
vn -0.7174 0.4475 -0.5339
vn -0.7201 0.4218 -0.5509
vn -0.6802 0.0098 -0.7330
vn 0.6185 0.7772 -0.1157
vn 0.7174 0.4475 -0.5339
vn 0.7201 0.4218 -0.5509
vn 0.6184 0.7781 -0.1100
vn 0.6185 0.7772 0.1157
vn 0.6184 0.7781 0.1099
vn 0.7174 0.4475 0.5339
vn 0.7201 0.4218 0.5509
vn 0.6802 0.0098 0.7330
vn 0.8849 -0.4419 -0.1471
vn 0.8849 -0.4419 0.1471
vn 0.8877 -0.4331 0.1566
vn 0.8877 -0.4330 -0.1566
vn 0.6802 0.0098 -0.7330
vn -0.8434 -0.5111 0.1658
vn -0.8434 -0.5111 -0.1658
vn -0.8488 -0.4963 -0.1822
vn -0.8488 -0.4963 0.1822
vn 0.8434 -0.5111 -0.1658
vn 0.8434 -0.5111 0.1658
vn 0.8488 -0.4963 0.1822
vn 0.8488 -0.4963 -0.1822
vn -0.7601 0.4117 0.5028
vn -0.7547 0.0243 0.6556
vn -0.7612 0.4052 0.5064
vn 0.7547 0.0243 0.6556
vn 0.7601 0.4117 0.5028
vn 0.7612 0.4052 0.5064
vn -0.6826 0.7165 0.1437
vn -0.6832 0.7178 0.1339
vn 0.6826 0.7165 0.1437
vn 0.6832 0.7178 0.1339
vn -0.6826 0.7165 -0.1437
vn -0.6832 0.7178 -0.1339
vn 0.6826 0.7165 -0.1437
vn 0.6832 0.7178 -0.1339
vn -0.7601 0.4117 -0.5028
vn -0.7612 0.4052 -0.5064
vn 0.7601 0.4117 -0.5028
vn 0.7612 0.4052 -0.5064
vn -0.7547 0.0243 -0.6556
vn 0.7547 0.0243 -0.6556
vn 0.8113 0.0101 0.5845
vn 0.7809 0.0191 0.6243
vn 0.8152 0.0090 0.5791
vn -0.8249 0.0019 0.5653
vn -0.8213 -0.0010 0.5705
vn -0.8209 -0.0013 0.5710
vn 0.8213 -0.0009 0.5704
vn 0.8249 0.0019 0.5653
vn 0.8209 -0.0013 0.5711
vn -0.7809 0.0191 0.6243
vn -0.8113 0.0101 0.5845
vn -0.8152 0.0090 0.5791
vn -0.8113 0.0101 -0.5845
vn -0.7809 0.0191 -0.6243
vn -0.8152 0.0090 -0.5791
vn -0.8213 -0.0010 -0.5705
vn -0.8249 0.0019 -0.5653
vn -0.8210 -0.0012 -0.5710
vn 0.8249 0.0019 -0.5653
vn 0.8213 -0.0009 -0.5704
vn 0.8209 -0.0013 -0.5711
vn 0.7809 0.0191 -0.6243
vn 0.8113 0.0101 -0.5845
vn 0.8152 0.0090 -0.5791
vn 0.4719 -0.0288 0.8812
vn 0.4984 -0.8600 0.1098
vn 0.5276 -0.8088 0.2599
vn 0.5023 -0.8553 0.1269
vn 0.4984 -0.8600 -0.1098
vn 0.5023 -0.8553 -0.1269
vn 0.5276 -0.8088 -0.2599
vn 0.4719 -0.0288 -0.8812
vn 0.4300 0.9028 -0.0000
vn 0.4525 0.0111 0.8917
vn 0.4453 0.0019 0.8954
vn 0.4446 0.0011 0.8957
vn 0.4453 0.0019 -0.8954
vn 0.4525 0.0111 -0.8917
vn 0.4446 0.0011 -0.8957
vn -0.4984 -0.8600 -0.1098
vn -0.5276 -0.8088 -0.2599
vn -0.5023 -0.8553 -0.1270
vn -0.4984 -0.8600 0.1098
vn -0.5023 -0.8553 0.1269
vn -0.5276 -0.8088 0.2599
vn -0.4719 -0.0288 0.8812
vn -0.4719 -0.0288 -0.8812
vn -0.4453 0.0019 0.8954
vn -0.4525 0.0111 0.8917
vn -0.4446 0.0011 0.8957
vn -0.4300 0.9028 -0.0000
vn -0.4525 0.0111 -0.8917
vn -0.4453 0.0019 -0.8954
vn -0.4446 0.0011 -0.8957
vn -0.4327 -0.0139 0.9014
vn -0.4327 -0.0139 -0.9014
vn 0.4327 -0.0139 -0.9014
vn 0.4327 -0.0139 0.9014
vt 0.091459 0.231336
vt 0.113350 0.229893
vt 0.696278 0.570915
vt 0.665497 0.570915
vt 0.665497 0.543030
vt 0.696278 0.543030
vt 0.006052 0.328132
vt 0.550011 0.501589
vt 0.518669 0.501589
vt 0.518669 0.531658
vt 0.553406 0.531658
vt 0.604761 0.565185
vt 0.684449 0.565185
vt 0.684449 0.556241
vt 0.604761 0.556241
vt 0.660543 0.570915
vt 0.628668 0.570915
vt 0.593676 0.543030
vt 0.624457 0.543030
vt 0.624457 0.570915
vt 0.593676 0.570915
vt 0.553406 0.542448
vt 0.518669 0.542448
vt 0.518669 0.572517
vt 0.550011 0.572517
vt 0.593676 0.505138
vt 0.624457 0.505138
vt 0.624457 0.533023
vt 0.593676 0.533023
vt 0.665497 0.533023
vt 0.665497 0.505138
vt 0.696278 0.533023
vt 0.696278 0.505138
vt 0.113351 0.229893
vt 0.604761 0.550578
vt 0.684449 0.550578
vt 0.684449 0.522586
vt 0.604761 0.522586
vt 0.588289 0.531658
vt 0.588289 0.501589
vt 0.549974 0.501589
vt 0.549974 0.531658
vt 0.588289 0.572517
vt 0.588289 0.542448
vt 0.549974 0.542448
vt 0.549974 0.572517
vt 0.519244 0.531658
vt 0.519244 0.501589
vt 0.684449 0.505138
vt 0.604761 0.505138
vt 0.519244 0.542448
vt 0.519244 0.572517
s 1
f 1/1/1 3/1/1 4/1/1 2/1/1
f 3/1/2 5/1/2 6/1/2 4/1/2
f 5/1/3 7/1/3 8/1/3 6/1/3
f 9/1/4 12/1/4 11/1/4 10/1/4
f 7/1/5 5/1/5 3/1/5 1/1/5
f 7/1/6 9/1/6 10/1/6 8/1/6
f 2/1/7 11/1/7 12/1/7 1/1/7
f 1/1/5 12/1/5 9/1/5 7/1/5
f 13/1/1 15/1/1 16/1/1 14/1/1
f 15/1/2 17/1/2 18/1/2 16/1/2
f 17/1/3 19/1/3 20/1/3 18/1/3
f 21/1/4 24/1/4 23/1/4 22/1/4
f 19/1/5 17/1/5 15/1/5 13/1/5
f 19/1/6 21/1/6 22/1/6 20/1/6
f 14/1/7 23/1/7 24/1/7 13/1/7
f 13/1/5 24/1/5 21/1/5 19/1/5
f 25/1/1 26/1/1 28/1/1 27/1/1
f 27/1/2 28/1/2 30/1/2 29/1/2
f 29/1/3 30/1/3 32/1/3 31/1/3
f 33/1/4 34/1/4 35/1/4 36/1/4
f 31/1/8 25/1/8 27/1/8 29/1/8
f 31/1/6 32/1/6 34/1/6 33/1/6
f 26/1/7 25/1/7 36/1/7 35/1/7
f 25/1/8 31/1/8 33/1/8 36/1/8
f 37/1/1 38/1/1 40/1/1 39/1/1
f 39/1/2 40/1/2 42/1/2 41/1/2
f 41/1/3 42/1/3 44/1/3 43/1/3
f 45/1/4 46/1/4 47/1/4 48/1/4
f 43/1/8 37/1/8 39/1/8 41/1/8
f 43/1/6 44/1/6 46/1/6 45/1/6
f 38/1/7 37/1/7 48/1/7 47/1/7
f 37/1/8 43/1/8 45/1/8 48/1/8
f 121/2/9 122/2/9 123/2/9 124/2/9
f 55/3/10 56/4/10 65/5/10 66/6/10
f 125/2/11 126/2/11 127/2/11 128/2/11
f 59/7/4 60/7/4 61/7/4 62/7/4
f 129/2/12 130/2/13 131/2/14 132/2/14
f 133/2/15 134/2/15 135/2/16 136/2/17
f 57/8/8 58/9/8 63/10/8 64/11/8
f 95/12/3 98/13/3 92/14/3 91/15/3
f 66/11/5 113/10/5 114/9/5 55/8/5
f 88/12/1 85/13/1 86/16/1 87/17/1
f 64/18/18 118/19/18 117/20/18 57/21/18
f 56/4/19 117/20/19 118/19/19 65/5/19
f 71/7/4 72/7/4 49/7/4 50/7/4
f 137/2/20 138/2/21 139/2/22 140/2/22
f 69/22/8 70/23/8 51/24/8 52/25/8
f 52/26/23 120/27/23 119/28/23 69/29/23
f 68/30/24 119/28/24 120/27/24 53/31/24
f 67/32/25 68/30/25 53/31/25 54/33/25
f 54/25/5 115/24/5 116/23/5 67/22/5
f 141/2/26 142/2/26 143/2/27 144/2/28
f 146/34/29 145/34/29 147/34/29 148/34/29
f 140/2/30 139/2/30 149/2/30 150/2/30
f 151/34/31 140/34/31 150/34/31 152/34/31
f 152/34/32 153/34/32 154/34/32 151/34/32
f 155/34/33 154/34/33 153/34/33 156/34/33
f 157/34/34 155/34/34 156/34/34 158/34/34
f 159/34/35 141/34/35 157/34/35 158/34/35
f 160/2/36 142/2/36 141/2/36 159/2/36
f 161/34/37 162/34/37 163/34/37 164/34/37
f 166/34/38 165/34/38 162/34/38 161/34/38
f 167/34/39 165/34/39 166/34/39 168/34/39
f 169/34/40 133/34/40 167/34/40 168/34/40
f 170/2/41 134/2/41 133/2/41 169/2/41
f 171/34/42 172/34/42 173/34/42 174/34/42
f 132/2/43 131/2/43 175/2/43 176/2/43
f 163/34/44 132/34/44 176/34/44 164/34/44
f 178/34/4 177/34/4 179/34/4 180/34/4
f 136/2/17 135/2/16 138/2/21 137/2/20
f 181/34/45 136/34/45 137/34/45 182/34/45
f 183/34/46 181/34/46 182/34/46 184/34/46
f 186/34/2 185/34/2 183/34/2 184/34/2
f 187/34/47 185/34/47 186/34/47 188/34/47
f 144/34/48 129/34/48 187/34/48 188/34/48
f 143/2/27 130/2/13 129/2/12 144/2/28
f 94/35/3 93/36/3 104/37/3 105/38/3
f 189/34/49 190/34/49 134/34/49 170/34/49
f 74/39/8 73/40/8 106/41/8 107/42/8
f 138/34/21 135/34/16 191/34/50 192/34/50
f 76/43/8 75/44/8 108/45/8 109/46/8
f 149/34/51 139/34/51 193/34/51 194/34/51
f 110/38/1 111/37/1 82/36/1 81/35/1
f 195/34/52 196/34/52 142/34/52 160/34/52
f 78/44/5 77/43/5 112/46/5 101/45/5
f 197/34/53 198/34/53 130/34/13 143/34/27
f 80/40/5 79/39/5 102/42/5 103/41/5
f 175/34/54 131/34/54 199/34/54 200/34/54
f 160/2/55 159/2/55 123/2/55 122/2/55
f 150/2/56 149/2/56 121/2/56 124/2/56
f 159/2/57 158/2/57 201/2/57 123/2/57
f 158/2/58 156/34/58 202/34/58 201/2/58
f 156/34/59 153/34/59 203/34/59 202/34/59
f 153/34/60 152/2/60 204/2/60 203/34/60
f 152/2/61 150/2/61 124/2/61 204/2/61
f 148/2/62 147/2/62 205/2/62 206/2/62
f 207/2/63 195/2/64 160/2/65 122/2/65
f 149/2/66 194/2/67 208/2/68 121/2/66
f 176/2/69 175/2/69 127/2/69 126/2/69
f 170/2/70 169/2/70 125/2/70 128/2/70
f 168/2/71 166/34/71 209/34/71 210/2/71
f 166/34/72 161/34/72 211/34/72 209/34/72
f 161/34/73 164/2/73 212/2/73 211/34/73
f 164/2/74 176/2/74 126/2/74 212/2/74
f 169/2/75 168/2/75 210/2/75 125/2/75
f 175/2/76 200/2/77 213/2/78 127/2/76
f 172/2/79 171/2/79 214/2/79 215/2/79
f 216/2/80 189/2/81 170/2/82 128/2/82
f 180/34/83 179/34/83 198/34/53 197/34/53
f 103/41/5 102/42/5 61/47/5 60/48/5
f 200/34/84 199/34/84 173/34/84 172/34/84
f 213/2/78 200/2/77 172/2/85 215/2/85
f 105/38/3 104/37/3 99/49/3 100/50/3
f 171/2/86 189/2/81 216/2/80 214/2/86
f 171/34/87 174/34/87 190/34/87 189/34/87
f 107/42/8 106/41/8 59/48/8 62/47/8
f 192/34/50 191/34/50 177/34/88 178/34/88
f 109/46/8 108/45/8 71/51/8 50/52/8
f 194/34/89 193/34/89 146/34/89 148/34/89
f 208/2/68 194/2/67 148/2/90 206/2/90
f 89/50/1 90/49/1 111/37/1 110/38/1
f 147/2/91 195/2/64 207/2/63 205/2/91
f 147/34/92 145/34/92 196/34/92 195/34/92
f 101/45/5 112/46/5 49/52/5 72/51/5
f 84/15/1 83/14/1 85/13/1 88/12/1
f 95/12/3 96/17/3 97/16/3 98/13/3
f 81/2/93 82/2/93 122/2/93 121/2/93
f 83/2/94 84/2/94 124/2/94 123/2/94
f 91/2/95 92/2/95 126/2/95 125/2/95
f 93/2/96 94/2/96 128/2/96 127/2/96
f 79/2/97 80/2/97 131/2/97 130/2/97
f 114/2/98 113/2/98 129/2/98 132/2/98
f 73/2/99 74/2/99 135/2/99 134/2/99
f 63/2/100 58/2/100 133/2/100 136/2/100
f 75/2/101 76/2/101 139/2/101 138/2/101
f 51/2/102 70/2/102 137/2/102 140/2/102
f 77/2/103 78/2/103 143/2/103 142/2/103
f 116/2/104 115/2/104 141/2/104 144/2/104
f 50/34/105 49/34/106 145/34/107 146/34/108
f 52/34/109 51/34/110 140/34/110 151/34/111
f 120/34/112 52/34/109 151/34/111 154/34/113
f 53/34/114 120/34/112 154/34/113 155/34/115
f 54/34/116 53/34/114 155/34/115 157/34/117
f 115/34/118 54/34/116 157/34/117 141/34/118
f 56/34/119 55/34/120 163/34/121 162/34/122
f 117/34/123 56/34/119 162/34/122 165/34/124
f 57/34/125 117/34/123 165/34/124 167/34/126
f 58/34/127 57/34/125 167/34/126 133/34/127
f 60/34/128 59/34/129 174/34/130 173/34/131
f 55/34/120 114/34/132 132/34/132 163/34/121
f 62/34/133 61/34/134 179/34/135 177/34/136
f 72/34/137 71/34/138 178/34/139 180/34/140
f 64/34/141 63/34/142 136/34/142 181/34/143
f 70/34/144 69/34/145 182/34/146 137/34/144
f 118/34/147 64/34/141 181/34/143 183/34/148
f 69/34/145 119/34/149 184/34/150 182/34/146
f 65/34/151 118/34/147 183/34/148 185/34/152
f 119/34/149 68/34/153 186/34/154 184/34/150
f 66/34/155 65/34/151 185/34/152 187/34/156
f 68/34/153 67/34/157 188/34/158 186/34/154
f 113/34/159 66/34/155 187/34/156 129/34/159
f 67/34/157 116/34/160 144/34/160 188/34/158
f 106/34/161 73/34/162 134/34/162 190/34/163
f 74/34/164 107/34/165 191/34/166 135/34/164
f 108/34/167 75/34/168 138/34/168 192/34/169
f 76/34/170 109/34/171 193/34/172 139/34/170
f 112/34/173 77/34/174 142/34/174 196/34/175
f 102/34/176 79/34/177 130/34/177 198/34/178
f 78/34/179 101/34/180 197/34/181 143/34/179
f 80/34/182 103/34/183 199/34/184 131/34/182
f 85/2/185 83/2/185 123/2/185 201/2/185
f 86/34/186 85/2/187 201/2/187 202/34/188
f 87/34/189 86/34/186 202/34/188 203/34/190
f 88/2/191 87/34/189 203/34/190 204/2/191
f 84/2/192 88/2/192 204/2/192 124/2/192
f 90/2/193 89/2/193 206/2/193 205/2/193
f 82/2/194 111/2/195 207/2/196 122/2/194
f 110/2/197 81/2/198 121/2/198 208/2/199
f 96/34/200 95/2/201 210/2/201 209/34/202
f 97/34/203 96/34/200 209/34/202 211/34/204
f 98/2/205 97/34/203 211/34/204 212/2/205
f 92/2/206 98/2/206 212/2/206 126/2/206
f 95/2/207 91/2/207 125/2/207 210/2/207
f 104/2/208 93/2/209 127/2/209 213/2/210
f 100/2/211 99/2/211 215/2/211 214/2/211
f 94/2/212 105/2/213 216/2/214 128/2/212
f 61/34/134 102/34/176 198/34/178 179/34/135
f 101/34/180 72/34/137 180/34/140 197/34/181
f 103/34/183 60/34/128 173/34/131 199/34/184
f 99/2/215 104/2/208 213/2/210 215/2/215
f 105/2/213 100/2/216 214/2/216 216/2/214
f 59/34/129 106/34/161 190/34/163 174/34/130
f 107/34/165 62/34/133 177/34/136 191/34/166
f 71/34/138 108/34/167 192/34/169 178/34/139
f 109/34/171 50/34/105 146/34/108 193/34/172
f 89/2/217 110/2/197 208/2/199 206/2/217
f 111/2/195 90/2/218 205/2/218 207/2/196
f 49/34/106 112/34/173 196/34/175 145/34/107
