# Blender 5.0.1
# www.blender.org
mtllib cup.mtl
o SM_Prop_Cup_01.001
v 0.087358 0.025612 0.015915
v 0.095420 0.031976 0.015915
v 0.090577 0.182659 0.013731
v 0.086406 0.193669 0.013731
v 0.090577 0.182659 -0.013732
v 0.086406 0.193669 -0.013732
v 0.087358 0.025612 -0.015915
v 0.095420 0.031976 -0.015915
v 0.125434 0.184983 0.011477
v 0.131074 0.196820 0.011477
v 0.131074 0.196820 -0.011477
v 0.125434 0.184983 -0.011477
v 0.085090 0.050241 0.013731
v 0.094664 0.050241 0.013731
v 0.094664 0.050241 -0.013732
v 0.085090 0.050241 -0.013732
v 0.161903 0.157881 -0.011477
v 0.161903 0.157881 0.011477
v 0.151510 0.154813 0.011477
v 0.151510 0.154813 -0.011477
v 0.068147 0.160536 0.015915
v 0.072700 0.201596 0.015915
v 0.072700 0.201596 -0.015915
v 0.068147 0.160536 -0.015915
v 0.130347 0.114151 -0.011477
v 0.130347 0.114151 0.011477
v 0.139578 0.109573 0.011477
v 0.139578 0.109573 -0.011477
v 0.097221 0.090066 0.011477
v 0.106857 0.084531 0.011477
v 0.106857 0.084531 -0.011477
v 0.097221 0.090066 -0.011477
v 0.071450 -0.000000 -0.071450
v 0.000000 -0.000000 -0.101045
v -0.071450 -0.000000 -0.071450
v -0.101045 0.000000 0.000000
v -0.071450 0.000000 0.071450
v 0.000000 0.000000 0.101045
v 0.071450 0.000000 0.071450
v 0.101045 0.000000 0.000000
v 0.000000 0.000000 0.000000
v -0.062554 0.066397 -0.062554
v -0.088464 0.066397 -0.000000
v -0.062554 0.066397 0.062554
v 0.000000 0.066397 0.088464
v 0.062554 0.066397 0.062554
v 0.088464 0.066397 -0.000000
v 0.062554 0.066397 -0.062554
v 0.000000 0.066397 -0.088464
v 0.053000 0.155549 -0.053000
v 0.074954 0.155549 -0.000000
v 0.053000 0.155549 0.053000
v 0.000000 0.155549 0.074954
v -0.053000 0.155549 0.053000
v -0.074954 0.155549 -0.000000
v -0.053000 0.155549 -0.053000
v 0.000000 0.155549 -0.074954
v 0.056684 0.197902 -0.056684
v 0.080163 0.197902 -0.000000
v 0.056684 0.197902 0.056684
v 0.000000 0.197902 0.080163
v -0.056684 0.197902 0.056684
v -0.080163 0.197902 -0.000000
v -0.056684 0.197902 -0.056684
v 0.000000 0.197902 -0.080163
v 0.065460 0.202467 -0.065460
v 0.092574 0.202467 -0.000000
v 0.065460 0.214182 -0.065460
v 0.092574 0.214182 -0.000000
v 0.065460 0.202467 0.065460
v 0.065460 0.214182 0.065460
v 0.000000 0.202467 0.092574
v 0.000000 0.214182 0.092574
v -0.065460 0.202467 0.065460
v -0.065460 0.214182 0.065460
v -0.092574 0.202467 -0.000000
v -0.092574 0.214182 -0.000000
v -0.065460 0.202467 -0.065460
v -0.065460 0.214182 -0.065460
v 0.000000 0.202467 -0.092574
v 0.000000 0.214182 -0.092574
v 0.059312 0.216650 -0.059312
v 0.000000 0.216650 -0.083880
v -0.059312 0.216650 -0.059312
v -0.083880 0.216650 -0.000000
v -0.059312 0.216650 0.059312
v 0.000000 0.216650 0.083880
v 0.059312 0.216650 0.059312
v 0.083880 0.216650 -0.000000
v 0.046894 0.155549 -0.046894
v 0.000000 0.155549 -0.066318
v -0.046894 0.155549 -0.046894
v -0.066318 0.155549 -0.000000
v -0.046894 0.155549 0.046894
v 0.000000 0.155549 0.066318
v 0.046894 0.155549 0.046894
v 0.066318 0.155549 -0.000000
v 0.000000 0.020290 -0.000000
v 0.055569 0.020290 -0.055570
v 0.000000 0.020290 -0.078587
v -0.055569 0.020290 -0.055570
v -0.078587 0.020290 -0.000000
v -0.055569 0.020290 0.055569
v 0.000000 0.020290 0.078587
v 0.055569 0.020290 0.055569
v 0.078587 0.020290 -0.000000
v 0.076367 0.210655 -0.000000
v 0.053999 0.210655 -0.053999
v 0.000000 0.210655 -0.076367
v -0.053999 0.210655 -0.053999
v -0.076367 0.210655 -0.000000
v -0.053999 0.210655 0.053999
v 0.000000 0.210655 0.076367
v 0.053999 0.210655 0.053999
v 0.000000 0.009469 -0.103148
v -0.072936 0.009469 -0.072936
v -0.103148 0.009469 -0.000000
v -0.072936 0.009469 0.072936
v 0.000000 0.009469 0.103147
v 0.072936 0.009469 0.072936
v 0.103147 0.009469 -0.000000
v 0.072936 0.009469 -0.072936
v 0.086152 0.058131 -0.000000
v 0.060918 0.058131 0.060919
v 0.000000 0.058131 0.086152
v -0.060919 0.058131 0.060919
v -0.086152 0.058131 -0.000000
v -0.060919 0.058131 -0.060919
v 0.000000 0.058131 -0.086152
v 0.060918 0.058131 -0.060919
v 0.000000 0.071464 -0.083293
v -0.058897 0.071464 -0.058897
v -0.083293 0.071464 -0.000000
v -0.058897 0.071464 0.058897
v 0.000000 0.071464 0.083293
v 0.058897 0.071464 0.058897
v 0.083293 0.071464 -0.000000
v 0.058897 0.071464 -0.058897
v 0.000000 0.016109 -0.096410
v -0.068172 0.016109 -0.068172
v -0.096410 0.016109 -0.000000
v -0.068172 0.016109 0.068172
v 0.000000 0.016109 0.096410
v 0.068172 0.016109 0.068172
v 0.096410 0.016109 -0.000000
v 0.068172 0.016109 -0.068172
v 0.074422 0.155497 -0.000000
v 0.076101 0.200052 -0.000000
vn 0.0569 -0.0037 0.9984
vn 0.0569 -0.0037 -0.9984
vn 0.6196 -0.7849 -0.0000
vn 0.0665 -0.9978 -0.0000
vn -0.0000 -0.0000 1.0000
vn 0.9078 -0.4195 -0.0000
vn -0.0000 -0.0000 -1.0000
vn -0.8871 0.4617 -0.0000
vn -0.0356 0.0987 0.9945
vn 0.9991 0.0413 -0.0000
vn -0.0356 0.0987 -0.9945
vn -0.9958 -0.0917 -0.0000
vn 0.7840 0.6207 -0.0000
vn -0.7566 -0.6539 -0.0000
vn 0.1203 -0.0009 0.9927
vn 0.5034 0.8638 0.0238
vn 0.1203 -0.0009 -0.9927
vn 0.8595 -0.5112 -0.0000
vn -0.5881 0.8088 -0.0000
vn 0.6078 -0.7941 -0.0000
vn 0.0160 0.0555 0.9983
vn 0.9422 -0.3350 -0.0000
vn 0.0160 0.0555 -0.9983
vn -0.9566 0.2914 -0.0000
vn 0.3811 0.0912 -0.9200
vn -0.3811 0.0912 -0.9200
vn -0.9200 0.0912 -0.3811
vn -0.9200 0.0912 0.3811
vn -0.3811 0.0912 0.9200
vn 0.3811 0.0912 0.9200
vn 0.9200 0.0912 0.3811
vn 0.9200 0.0912 -0.3811
vn -0.0000 -1.0000 -0.0000
vn -0.0000 1.0000 -0.0000
vn -0.9012 0.2200 -0.3733
vn -0.9012 0.2200 0.3733
vn -0.3733 0.2200 0.9012
vn 0.3733 0.2200 0.9012
vn 0.9012 0.2200 0.3733
vn 0.9012 0.2200 -0.3733
vn 0.3733 0.2200 -0.9012
vn -0.3733 0.2200 -0.9012
vn 0.9180 -0.1129 -0.3802
vn 0.9180 -0.1129 0.3802
vn 0.3802 -0.1129 0.9180
vn -0.3802 -0.1129 0.9180
vn -0.9180 -0.1129 0.3802
vn -0.9180 -0.1129 -0.3802
vn -0.3802 -0.1129 -0.9180
vn 0.3802 -0.1129 -0.9180
vn 0.9239 -0.0000 -0.3827
vn 0.9239 -0.0000 0.3827
vn 0.3827 -0.0000 0.9239
vn -0.3827 -0.0000 0.9239
vn -0.9239 -0.0000 0.3827
vn -0.9239 -0.0000 -0.3827
vn -0.3827 -0.0000 -0.9239
vn 0.3827 -0.0000 -0.9239
vn 0.3417 -0.9291 -0.1415
vn 0.3417 -0.9291 0.1415
vn 0.1415 -0.9291 0.3417
vn -0.1415 -0.9291 0.3417
vn -0.3417 -0.9291 0.1415
vn -0.3417 -0.9291 -0.1415
vn -0.1415 -0.9291 -0.3417
vn 0.1415 -0.9291 -0.3417
vn 0.1124 0.9559 -0.2714
vn -0.1124 0.9559 -0.2714
vn -0.2714 0.9559 -0.1124
vn -0.2714 0.9559 0.1124
vn -0.1124 0.9559 0.2714
vn 0.1124 0.9559 0.2714
vn 0.2714 0.9559 0.1124
vn 0.2714 0.9559 -0.1124
vn -0.3774 0.1661 0.9110
vn 0.3774 0.1661 0.9110
vn 0.9110 0.1661 0.3774
vn 0.9110 0.1661 -0.3774
vn 0.3774 0.1661 -0.9110
vn -0.3774 0.1661 -0.9110
vn -0.9110 0.1661 -0.3774
vn -0.9110 0.1661 0.3774
vn -0.3813 -0.0835 0.9207
vn 0.3813 -0.0835 0.9207
vn 0.9207 -0.0835 0.3813
vn 0.9207 -0.0835 -0.3813
vn 0.3813 -0.0835 -0.9207
vn -0.3813 -0.0835 -0.9207
vn -0.9207 -0.0835 -0.3813
vn -0.9207 -0.0835 0.3813
vn -0.6039 0.7568 0.2501
vn -0.2501 0.7568 0.6039
vn 0.2501 0.7568 0.6039
vn 0.6039 0.7568 0.2501
vn 0.6039 0.7568 -0.2501
vn 0.2501 0.7568 -0.6039
vn -0.2501 0.7568 -0.6039
vn -0.6039 0.7568 -0.2501
vn -0.3749 -0.2009 -0.9050
vn -0.9050 -0.2009 -0.3749
vn -0.9050 -0.2009 0.3749
vn -0.3749 -0.2009 0.9050
vn 0.3749 -0.2009 0.9050
vn 0.9050 -0.2009 0.3749
vn 0.9050 -0.2009 -0.3749
vn 0.3749 -0.2009 -0.9050
vn 0.8945 -0.2502 0.3705
vn 0.3705 -0.2502 0.8945
vn -0.3705 -0.2502 0.8945
vn -0.8945 -0.2502 0.3705
vn -0.8945 -0.2502 -0.3705
vn -0.3705 -0.2502 -0.8945
vn 0.3705 -0.2502 -0.8945
vn 0.8945 -0.2502 -0.3705
vn -0.2784 0.6860 -0.6722
vn -0.6722 0.6860 -0.2784
vn -0.6722 0.6860 0.2784
vn -0.2784 0.6860 0.6722
vn 0.2784 0.6860 0.6722
vn 0.6722 0.6860 0.2784
vn 0.6722 0.6860 -0.2784
vn 0.2784 0.6860 -0.6722
vn -0.2792 0.6839 -0.6740
vn -0.6740 0.6839 -0.2792
vn -0.6740 0.6839 0.2792
vn -0.2792 0.6839 0.6740
vn 0.2792 0.6839 0.6740
vn 0.6740 0.6839 0.2792
vn 0.6740 0.6839 -0.2792
vn 0.2792 0.6839 -0.6740
vn -0.0704 0.9975 -0.0000
vn 0.5034 0.8638 -0.0238
vn 0.6489 -0.6135 0.4501
vn 0.6489 -0.6135 -0.4501
vn 0.5266 0.8501 -0.0000
vt 0.104467 0.306062
s 1
f 9/1/1 10/1/1 4/1/1 3/1/1
f 5/1/2 6/1/2 11/1/2 12/1/2
f 7/1/3 8/1/3 2/1/3 1/1/3
f 12/1/4 9/1/4 3/1/4 5/1/4
f 26/1/5 27/1/5 18/1/5 19/1/5
f 27/1/6 28/1/6 17/1/6 18/1/6
f 20/1/7 17/1/7 28/1/7 25/1/7
f 25/1/8 26/1/8 19/1/8 20/1/8
f 1/1/9 2/1/9 14/1/9 13/1/9
f 2/1/10 8/1/10 15/1/10 14/1/10
f 16/1/11 15/1/11 8/1/11 7/1/11
f 7/1/12 1/1/12 13/1/12 16/1/12
f 18/1/13 17/1/13 11/1/13 10/1/13
f 19/1/5 18/1/5 10/1/5 9/1/5
f 20/1/14 19/1/14 9/1/14 12/1/14
f 12/1/7 11/1/7 17/1/7 20/1/7
f 3/1/15 4/1/15 22/1/15 21/1/15
f 4/1/16 148/1/16 22/1/16
f 6/1/17 5/1/17 24/1/17 23/1/17
f 147/1/18 5/1/18 3/1/18
f 32/1/19 29/1/19 26/1/19 25/1/19
f 29/1/5 30/1/5 27/1/5 26/1/5
f 30/1/20 31/1/20 28/1/20 27/1/20
f 25/1/7 28/1/7 31/1/7 32/1/7
f 13/1/21 14/1/21 30/1/21 29/1/21
f 14/1/22 15/1/22 31/1/22 30/1/22
f 32/1/23 31/1/23 15/1/23 16/1/23
f 16/1/24 13/1/24 29/1/24 32/1/24
f 138/1/25 131/1/25 57/1/25 50/1/25
f 131/1/26 132/1/26 56/1/26 57/1/26
f 132/1/27 133/1/27 55/1/27 56/1/27
f 133/1/28 134/1/28 54/1/28 55/1/28
f 134/1/29 135/1/29 53/1/29 54/1/29
f 135/1/30 136/1/30 52/1/30 53/1/30
f 136/1/31 137/1/31 51/1/31 52/1/31
f 137/1/32 138/1/32 50/1/32 51/1/32
f 34/1/33 33/1/33 41/1/33
f 35/1/33 34/1/33 41/1/33
f 36/1/33 35/1/33 41/1/33
f 37/1/33 36/1/33 41/1/33
f 38/1/33 37/1/33 41/1/33
f 39/1/33 38/1/33 41/1/33
f 40/1/33 39/1/33 41/1/33
f 33/1/33 40/1/33 41/1/33
f 98/1/34 99/1/34 100/1/34
f 98/1/34 100/1/34 101/1/34
f 98/1/34 101/1/34 102/1/34
f 98/1/34 102/1/34 103/1/34
f 98/1/34 103/1/34 104/1/34
f 98/1/34 104/1/34 105/1/34
f 98/1/34 105/1/34 106/1/34
f 98/1/34 106/1/34 99/1/34
f 140/1/35 141/1/35 127/1/35 128/1/35
f 141/1/36 142/1/36 126/1/36 127/1/36
f 142/1/37 143/1/37 125/1/37 126/1/37
f 143/1/38 144/1/38 124/1/38 125/1/38
f 144/1/39 145/1/39 123/1/39 124/1/39
f 145/1/40 146/1/40 130/1/40 123/1/40
f 146/1/41 139/1/41 129/1/41 130/1/41
f 139/1/42 140/1/42 128/1/42 129/1/42
f 51/1/43 50/1/43 58/1/43 59/1/43
f 52/1/44 51/1/44 59/1/44 60/1/44
f 53/1/45 52/1/45 60/1/45 61/1/45
f 54/1/46 53/1/46 61/1/46 62/1/46
f 55/1/47 54/1/47 62/1/47 63/1/47
f 56/1/48 55/1/48 63/1/48 64/1/48
f 57/1/49 56/1/49 64/1/49 65/1/49
f 50/1/50 57/1/50 65/1/50 58/1/50
f 67/1/51 66/1/51 68/1/51 69/1/51
f 70/1/52 67/1/52 69/1/52 71/1/52
f 72/1/53 70/1/53 71/1/53 73/1/53
f 74/1/54 72/1/54 73/1/54 75/1/54
f 76/1/55 74/1/55 75/1/55 77/1/55
f 78/1/56 76/1/56 77/1/56 79/1/56
f 80/1/57 78/1/57 79/1/57 81/1/57
f 66/1/58 80/1/58 81/1/58 68/1/58
f 59/1/59 58/1/59 66/1/59 67/1/59
f 60/1/60 59/1/60 67/1/60 70/1/60
f 61/1/61 60/1/61 70/1/61 72/1/61
f 62/1/62 61/1/62 72/1/62 74/1/62
f 63/1/63 62/1/63 74/1/63 76/1/63
f 64/1/64 63/1/64 76/1/64 78/1/64
f 65/1/65 64/1/65 78/1/65 80/1/65
f 58/1/66 65/1/66 80/1/66 66/1/66
f 68/1/67 81/1/67 83/1/67 82/1/67
f 81/1/68 79/1/68 84/1/68 83/1/68
f 79/1/69 77/1/69 85/1/69 84/1/69
f 77/1/70 75/1/70 86/1/70 85/1/70
f 75/1/71 73/1/71 87/1/71 86/1/71
f 73/1/72 71/1/72 88/1/72 87/1/72
f 71/1/73 69/1/73 89/1/73 88/1/73
f 69/1/74 68/1/74 82/1/74 89/1/74
f 108/1/75 109/1/75 91/1/75 90/1/75
f 109/1/76 110/1/76 92/1/76 91/1/76
f 110/1/77 111/1/77 93/1/77 92/1/77
f 111/1/78 112/1/78 94/1/78 93/1/78
f 112/1/79 113/1/79 95/1/79 94/1/79
f 113/1/80 114/1/80 96/1/80 95/1/80
f 114/1/81 107/1/81 97/1/81 96/1/81
f 107/1/82 108/1/82 90/1/82 97/1/82
f 90/1/83 91/1/83 100/1/83 99/1/83
f 91/1/84 92/1/84 101/1/84 100/1/84
f 92/1/85 93/1/85 102/1/85 101/1/85
f 93/1/86 94/1/86 103/1/86 102/1/86
f 94/1/87 95/1/87 104/1/87 103/1/87
f 95/1/88 96/1/88 105/1/88 104/1/88
f 96/1/89 97/1/89 106/1/89 105/1/89
f 97/1/90 90/1/90 99/1/90 106/1/90
f 89/1/91 82/1/91 108/1/91 107/1/91
f 82/1/92 83/1/92 109/1/92 108/1/92
f 83/1/93 84/1/93 110/1/93 109/1/93
f 84/1/94 85/1/94 111/1/94 110/1/94
f 85/1/95 86/1/95 112/1/95 111/1/95
f 86/1/96 87/1/96 113/1/96 112/1/96
f 87/1/97 88/1/97 114/1/97 113/1/97
f 88/1/98 89/1/98 107/1/98 114/1/98
f 34/1/99 35/1/99 116/1/99 115/1/99
f 35/1/100 36/1/100 117/1/100 116/1/100
f 36/1/101 37/1/101 118/1/101 117/1/101
f 37/1/102 38/1/102 119/1/102 118/1/102
f 38/1/103 39/1/103 120/1/103 119/1/103
f 39/1/104 40/1/104 121/1/104 120/1/104
f 40/1/105 33/1/105 122/1/105 121/1/105
f 33/1/106 34/1/106 115/1/106 122/1/106
f 124/1/107 123/1/107 47/1/107 46/1/107
f 125/1/108 124/1/108 46/1/108 45/1/108
f 126/1/109 125/1/109 45/1/109 44/1/109
f 127/1/110 126/1/110 44/1/110 43/1/110
f 128/1/111 127/1/111 43/1/111 42/1/111
f 129/1/112 128/1/112 42/1/112 49/1/112
f 130/1/113 129/1/113 49/1/113 48/1/113
f 123/1/114 130/1/114 48/1/114 47/1/114
f 49/1/115 42/1/115 132/1/115 131/1/115
f 42/1/116 43/1/116 133/1/116 132/1/116
f 43/1/117 44/1/117 134/1/117 133/1/117
f 44/1/118 45/1/118 135/1/118 134/1/118
f 45/1/119 46/1/119 136/1/119 135/1/119
f 46/1/120 47/1/120 137/1/120 136/1/120
f 47/1/121 48/1/121 138/1/121 137/1/121
f 48/1/122 49/1/122 131/1/122 138/1/122
f 115/1/123 116/1/123 140/1/123 139/1/123
f 116/1/124 117/1/124 141/1/124 140/1/124
f 117/1/125 118/1/125 142/1/125 141/1/125
f 118/1/126 119/1/126 143/1/126 142/1/126
f 119/1/127 120/1/127 144/1/127 143/1/127
f 120/1/128 121/1/128 145/1/128 144/1/128
f 121/1/129 122/1/129 146/1/129 145/1/129
f 122/1/130 115/1/130 139/1/130 146/1/130
f 11/1/131 6/1/131 4/1/131 10/1/131
f 148/1/132 6/1/132 23/1/132
f 147/1/133 3/1/133 21/1/133
f 5/1/134 147/1/134 24/1/134
f 148/1/135 4/1/135 6/1/135
