# Blender 5.0.1
# www.blender.org
mtllib fence.mtl
o SM_Prop_PikeFence_02.001
v -0.614544 -0.021412 -0.052303
v -0.498823 -0.021412 0.134665
v -0.489927 2.887079 0.075217
v -0.479907 2.858460 0.091788
v -0.463462 2.893690 0.060481
v -0.453444 2.865070 0.077049
v -0.504252 -0.021412 -0.120567
v -0.388530 -0.021412 0.066401
v -0.479073 1.529493 0.173964
v -0.581474 1.574311 -0.000280
v -0.477214 1.626060 -0.071531
v -0.365045 1.599773 0.108729
v -0.464160 2.416753 0.190667
v -0.575860 2.146333 0.010197
v -0.465568 2.146333 -0.058067
v -0.353868 2.416753 0.122403
v -0.586391 1.465113 0.112208
v -0.606602 -0.021412 0.072077
v -0.396473 -0.021412 -0.057980
v -0.369594 1.659900 -0.018832
v -0.359554 2.281543 0.001668
v -0.569684 2.281543 0.131725
v -0.493770 0.957911 0.170101
v -0.368000 0.999192 0.118954
v -0.342392 1.538310 -0.027975
v -0.365451 2.405367 0.162487
v -0.800792 -0.025886 0.174230
v -0.585630 -0.018436 0.083463
v -0.691358 2.618478 0.087472
v -0.667535 2.629959 0.081665
v -0.702689 2.625947 0.059787
v -0.678874 2.637428 0.053985
v -0.855713 -0.022194 0.048698
v -0.640580 -0.014744 -0.042045
v -0.593513 1.530373 0.131206
v -0.797841 1.568361 0.163835
v -0.821794 1.431203 0.057752
v -0.621552 1.602421 0.004587
v -0.567274 2.191561 0.111098
v -0.749194 2.416453 0.187331
v -0.803014 2.419991 0.070234
v -0.601090 2.201221 0.002586
v -0.690039 1.178112 0.210423
v -0.668331 -0.023833 0.185645
v -0.772995 -0.016798 -0.053496
v -0.748966 1.659525 -0.035749
v -0.736562 2.207900 -0.028693
v -0.632432 2.275367 0.201414
v -0.582605 1.228113 0.146685
v -0.621869 1.116757 -0.027157
v -0.763893 1.179019 -0.049050
v 0.052126 -0.009518 0.151990
v 0.247985 -0.013706 0.026963
v 0.156787 2.410984 -0.039238
v 0.178671 2.421206 -0.049531
v 0.141590 2.417072 -0.065558
v 0.163468 2.427293 -0.075847
v -0.021667 -0.011760 0.036250
v 0.174135 -0.015951 -0.088740
v 0.266769 1.707803 -0.003599
v 0.087780 1.327094 0.090374
v 0.026534 1.444507 -0.024088
v 0.219581 1.772888 -0.128600
v 0.274966 1.866549 0.025983
v 0.083788 2.060204 0.046332
v 0.054832 2.205418 -0.052611
v 0.215106 2.260327 -0.098523
v 0.170751 1.164132 0.100614
v 0.183445 -0.010597 0.141867
v 0.042800 -0.014872 -0.078607
v 0.077600 1.665048 -0.136269
v 0.119517 2.202596 -0.114678
v 0.197802 1.775554 0.086834
v 0.279447 1.034775 0.039249
v 0.214743 1.120474 -0.138129
v 0.065036 1.183116 -0.130449
v 0.206203 1.144372 -0.124497
v 0.262077 1.129532 0.019883
v -0.292804 -0.020559 -0.090351
v -0.460335 -0.005614 0.028737
v -0.236517 2.192285 -0.139836
v -0.263659 2.203506 -0.120776
v -0.223810 2.186665 -0.115518
v -0.250936 2.197884 -0.096458
v -0.226061 -0.017565 0.008756
v -0.393607 -0.002620 0.127844
v -0.375104 1.432107 -0.060857
v -0.214877 1.459217 -0.175737
v -0.144758 1.509566 -0.086533
v -0.312703 1.523369 0.036981
v -0.306690 2.163418 -0.096286
v -0.181364 1.883057 -0.218974
v -0.118833 1.886051 -0.119867
v -0.251863 2.115601 -0.004735
v -0.325603 1.363425 -0.163037
v -0.406798 -0.014442 -0.075664
v -0.279654 -0.008737 0.113156
v -0.181973 1.598620 0.017128
v -0.167399 1.988331 -0.027462
v -0.281129 2.014512 -0.211933
v -0.390861 1.415000 -0.066645
v -0.322353 1.453783 0.068463
v -0.175810 1.511796 0.044568
v -0.289212 2.115187 -0.014920
v -0.056456 -0.020454 -0.011693
v -0.242509 -0.003902 -0.070235
v 0.016934 2.198644 0.102190
v -0.000900 2.209483 0.093407
v 0.009634 2.203988 0.126348
v -0.008194 2.214827 0.117565
v -0.089308 -0.021734 0.098531
v -0.275352 -0.005182 0.039990
v -0.100371 1.293280 -0.027622
v 0.051906 1.314506 0.064533
v -0.000543 1.197197 0.139128
v -0.146327 1.350701 0.071638
v -0.081083 1.848133 0.000378
v 0.082889 2.029146 0.062951
v 0.065657 2.026238 0.165194
v -0.117946 1.853217 0.088425
v -0.020331 0.994035 -0.041334
v -0.134640 -0.011598 -0.090852
v -0.197222 -0.014038 0.119148
v -0.082109 1.391240 0.169313
v -0.046897 1.851168 0.182526
v 0.016579 1.915776 -0.017927
v -0.120591 1.040924 -0.056898
v -0.198150 0.943612 0.070480
v -0.114325 0.987923 0.164517
v 0.413851 0.005794 0.098820
v 0.392314 -0.006662 -0.106482
v 0.354015 2.656706 -0.140022
v 0.348187 2.629349 -0.158450
v 0.330292 2.662681 -0.132918
v 0.324442 2.635323 -0.151342
v 0.299307 0.006879 0.111491
v 0.277733 -0.005578 -0.093812
v 0.396838 1.408982 -0.195037
v 0.412848 1.462016 0.002701
v 0.307326 1.510976 0.019487
v 0.285884 1.474304 -0.188727
v 0.355132 2.219829 -0.249700
v 0.429684 1.985234 -0.041492
v 0.328124 1.985159 -0.004114
v 0.254393 2.219802 -0.212519
v 0.457132 1.355981 -0.092153
v 0.454950 -0.000924 -0.009566
v 0.236685 0.001142 0.014574
v 0.243896 1.536542 -0.075030
v 0.245471 2.102458 -0.091442
v 0.438182 2.102554 -0.162467
v 0.404605 1.329095 -0.207730
v 0.259010 1.336815 -0.214027
v 0.208145 1.410882 -0.075056
v 0.308149 2.207962 -0.260458
v 0.603676 -0.025554 0.134064
v 0.534072 -0.021043 -0.066572
v 0.646243 2.705935 0.094036
v 0.639234 2.679446 0.073393
v 0.622189 2.713065 0.102490
v 0.615159 2.686575 0.081847
v 0.491865 -0.021782 0.175177
v 0.422285 -0.017271 -0.025459
v 0.582361 1.438811 -0.055683
v 0.643589 1.497361 0.138773
v 0.538890 1.550626 0.185310
v 0.475732 1.508844 -0.015981
v 0.603797 2.274094 -0.044625
v 0.661800 2.015025 0.153576
v 0.557134 2.018798 0.194689
v 0.500047 2.277866 -0.003512
v 0.663044 1.374190 0.027769
v 0.619481 -0.025006 0.015138
v 0.406481 -0.017819 0.093467
v 0.461490 1.564847 0.112955
v 0.481311 2.150039 0.114196
v 0.679849 2.142852 0.035868
v 0.589772 1.366943 -0.068962
v 0.449090 1.438914 -0.034257
v 0.432136 1.473132 0.132534
v 0.515472 2.266876 -0.041368
v 0.771671 -0.024405 -0.134711
v 0.611306 -0.016490 0.038636
v 0.751952 2.608434 -0.049226
v 0.733726 2.620071 -0.032368
v 0.770776 2.614659 -0.027480
v 0.752547 2.626296 -0.010622
v 0.868340 -0.026335 -0.040054
v 0.707942 -0.018420 0.133293
v 0.666156 1.534406 -0.022507
v 0.836016 1.570261 -0.146079
v 0.888167 1.428607 -0.052504
v 0.736644 1.601207 0.086171
v 0.676969 2.195524 0.001045
v 0.818649 2.420562 -0.162195
v 0.902991 2.137334 -0.072758
v 0.742112 2.200481 0.091134
v 0.709332 1.183377 -0.136926
v 0.647737 -0.019573 -0.090879
v 0.831880 -0.023252 0.089461
v 0.864143 1.654694 0.067070
v 0.868710 2.137894 0.050705
v 0.707461 2.281794 -0.118736
v 0.638612 1.232804 -0.029278
v 0.729360 1.114192 0.120683
v 0.864980 1.173248 0.078733
vn -0.5019 0.0071 0.8649
vn 0.9883 0.0334 0.1488
vn -0.0000 -1.0000 -0.0000
vn 0.4373 -0.0017 0.8993
vn -0.5509 0.0362 -0.8338
vn -0.5497 0.0280 -0.8349
vn -0.5508 0.0352 -0.8339
vn -0.4865 -0.0095 0.8736
vn -0.5495 0.0270 -0.8350
vn 0.9508 -0.2276 0.2101
vn 0.4113 -0.0414 0.9106
vn -0.6216 0.1500 0.7689
vn -0.5189 0.1348 -0.8442
vn 0.9497 0.1854 -0.2524
vn 0.5011 0.2013 0.8416
vn -0.9997 0.0167 0.0205
vn 0.3943 0.1563 -0.9056
vn 0.4546 0.0179 -0.8905
vn 0.4362 0.1591 -0.8857
vn 0.2951 0.5540 0.7784
vn -0.9912 0.1319 0.0144
vn -0.9999 0.0160 0.0036
vn -0.5517 -0.0199 0.8338
vn 0.4572 -0.0449 0.8882
vn 0.9995 -0.0291 0.0072
vn 0.4045 0.0123 -0.9144
vn 1.0000 -0.0071 0.0062
vn 0.1983 0.9263 0.3204
vn 0.4877 0.0622 0.8708
vn 0.2422 0.0414 -0.9693
vn 0.0187 -0.9991 -0.0376
vn 0.9752 0.0177 -0.2207
vn -0.9486 0.0116 0.3163
vn 0.7424 -0.0243 0.6695
vn -0.9491 0.0287 0.3136
vn 0.9628 -0.0404 -0.2673
vn 0.8778 0.2290 0.4208
vn -0.8138 0.4232 0.3984
vn 0.2295 0.1542 -0.9610
vn 0.9376 0.1980 -0.2859
vn -0.2448 -0.0066 0.9696
vn -0.2464 0.0029 0.9692
vn -0.2454 -0.0032 0.9694
vn -0.8345 0.0411 -0.5495
vn -0.8108 0.0239 -0.5848
vn -0.4925 0.2182 -0.8425
vn -0.3290 0.8692 0.3692
vn 0.2646 0.3446 0.9007
vn -0.2470 0.0063 0.9690
vn 0.6610 -0.0219 0.7501
vn 0.9538 0.0012 -0.3006
vn 0.1221 0.0068 -0.9925
vn -0.8206 0.0162 -0.5713
vn 0.2621 -0.0033 -0.9650
vn 0.6930 0.2641 0.6708
vn 0.1817 0.5354 -0.8248
vn -0.0064 -0.9997 0.0235
vn 0.9373 0.1906 -0.2917
vn -0.8508 0.0484 0.5233
vn 0.7764 -0.0484 0.6284
vn -0.9042 0.0354 0.4257
vn 0.9357 0.0271 -0.3517
vn 0.4532 0.1970 0.8694
vn -0.7123 0.3124 0.6285
vn 0.0722 0.1561 -0.9851
vn 0.9773 0.2044 0.0556
vn 0.0306 0.0406 0.9987
vn -0.9238 0.0195 -0.3823
vn -0.8564 0.0436 -0.5145
vn -0.6352 0.2339 -0.7360
vn -0.2536 0.9000 0.3546
vn 0.1967 0.2030 0.9592
vn -0.1519 0.0451 0.9874
vn 0.7144 0.0031 0.6998
vn 0.8993 -0.0371 -0.4357
vn -0.0725 -0.0413 -0.9965
vn -0.9039 0.0059 -0.4278
vn 0.0666 0.0478 -0.9966
vn 0.0505 -0.0101 -0.9987
vn 0.9315 -0.0222 -0.3630
vn 0.6674 0.0248 0.7443
vn -0.4466 0.6273 -0.6380
vn -0.0220 0.3529 0.9354
vn -0.0457 -0.9971 0.0609
vn -0.8865 0.3496 0.3030
vn 0.8168 -0.0776 -0.5717
vn -0.9266 0.0530 -0.3722
vn 0.8271 -0.1141 -0.5503
vn -0.2454 -0.3259 0.9130
vn -0.9175 0.0893 0.3875
vn -0.6932 0.3641 -0.6220
vn 0.8215 0.2834 -0.4948
vn 0.7911 0.4513 0.4128
vn -0.4298 0.6982 0.5726
vn -0.0993 -0.0545 -0.9936
vn 0.9640 0.1398 0.2260
vn 0.9136 -0.0070 0.4065
vn 0.8999 0.3631 0.2414
vn 0.3881 0.9215 0.0100
vn 0.1808 0.3303 -0.9264
vn -0.1061 -0.0773 -0.9914
vn -0.8589 0.0128 -0.5120
vn -0.8692 0.0689 0.4896
vn 0.1397 0.0343 0.9896
vn 0.9398 -0.0388 0.3396
vn 0.1450 0.0912 0.9852
vn -0.1533 0.8353 0.5280
vn 0.1970 0.0974 -0.9756
vn -0.8057 0.0792 0.5871
vn -0.0777 -0.9964 -0.0347
vn -0.8805 0.1174 -0.4592
vn 0.9248 -0.0883 0.3701
vn -0.1273 0.0393 -0.9911
vn 0.9426 -0.0645 0.3276
vn -0.9056 0.0586 -0.4200
vn -0.3774 0.3085 -0.8732
vn 0.9291 0.3262 0.1740
vn -0.7816 0.1893 0.5943
vn -0.8797 0.2942 -0.3736
vn 0.8116 -0.0459 -0.5825
vn 0.2759 -0.0335 0.9606
vn 0.2331 -0.0479 0.9713
vn -0.1640 0.1807 0.9698
vn 0.5292 0.8481 -0.0277
vn 0.4511 0.3484 -0.8217
vn 0.8319 -0.0271 -0.5542
vn -0.0158 0.0324 -0.9993
vn -0.9176 0.1001 -0.3848
vn -0.7334 0.0338 0.6789
vn 0.2522 -0.0569 0.9660
vn -0.8201 0.0364 0.5711
vn 0.8851 0.1557 -0.4385
vn -0.8585 0.2475 -0.4490
vn -0.0027 -0.9981 0.0608
vn -0.0027 -0.9981 0.0609
vn 0.0478 0.1679 -0.9846
vn 0.1463 0.0624 0.9873
vn 0.7904 -0.0184 -0.6124
vn 0.2649 0.0554 0.9627
vn -0.6241 -0.5376 -0.5670
vn 0.0005 -0.0816 -0.9967
vn 0.8052 0.1419 -0.5758
vn 0.3367 0.1743 0.9253
vn -0.9849 0.1547 0.0773
vn -0.3204 0.1957 -0.9268
vn 0.9263 0.0235 0.3761
vn -0.7808 0.2220 0.5840
vn -0.7629 0.0412 0.6452
vn -0.6878 0.1566 0.7088
vn -0.1005 0.5705 -0.8151
vn 0.9831 0.1448 0.1123
vn 0.9708 0.0231 0.2386
vn 0.8809 -0.0369 -0.4718
vn -0.0272 -0.0824 -0.9962
vn -0.9409 -0.0418 -0.3360
vn -0.7725 0.0341 0.6340
vn -0.9375 -0.0064 -0.3480
vn -0.1422 0.9120 -0.3847
vn 0.7755 0.1912 -0.6017
vn -0.9272 0.3196 -0.1953
vn -0.0372 -0.9993 -0.0096
vn -0.1541 0.2345 -0.9598
vn 0.3718 -0.0149 0.9282
vn 0.7175 -0.0088 -0.6965
vn 0.3774 -0.0367 0.9253
vn -0.9290 -0.1676 -0.3299
vn -0.2153 -0.0005 -0.9765
vn 0.8007 0.1019 -0.5904
vn 0.3645 0.0885 0.9270
vn -0.9622 0.2470 0.1150
vn -0.3253 0.2854 -0.9015
vn 0.9856 -0.0291 0.1667
vn 0.9863 -0.0296 0.1623
vn 0.9858 -0.0293 0.1655
vn -0.6057 0.3468 0.7161
vn -0.6975 0.0180 0.7163
vn -0.6609 0.1805 0.7284
vn -0.0865 0.6265 -0.7746
vn 0.9924 0.0475 0.1139
vn 0.9865 -0.0297 0.1612
vn 0.7473 -0.0242 -0.6641
vn -0.2864 0.0045 -0.9581
vn -0.9931 0.0189 -0.1161
vn -0.5735 0.0005 0.8192
vn -0.9864 0.0409 -0.1591
vn -0.0888 0.9463 -0.3109
vn -0.8137 0.0872 -0.5746
vn 0.2074 0.0452 0.9772
vn -0.0339 -0.9993 0.0143
vn -0.8422 0.0561 0.5363
vn 0.7743 -0.0263 -0.6323
vn -0.9498 0.0122 -0.3126
vn 0.7867 -0.0131 -0.6172
vn -0.8257 -0.0021 0.5642
vn -0.9793 0.1180 -0.1643
vn 0.9450 0.3084 -0.1085
vn 0.3883 0.2052 0.8984
vn -0.7974 0.1557 0.5831
vn -0.1899 -0.0116 -0.9817
vn 0.9826 0.0062 0.1857
vn 0.9706 -0.0084 0.2407
vn 0.9157 0.2409 0.3217
vn 0.1849 0.8908 -0.4150
vn -0.5962 0.2440 -0.7649
vn -0.2137 -0.0011 -0.9769
vn -0.9101 0.0137 -0.4142
vn -0.7844 0.0370 0.6191
vn 0.3134 0.0022 0.9496
vn 0.9783 -0.0177 0.2066
vn 0.2284 0.0081 0.9735
vt 0.527857 0.513041
vt 0.528393 0.512872
vt 0.528372 0.512819
vt 0.528122 0.512556
vt 0.528527 0.512685
vt 0.528657 0.512768
vt 0.528162 0.512618
vt 0.004643 0.329978
vt 0.004774 0.329944
vt 0.004724 0.329896
vt 0.004549 0.329886
vt 0.527631 0.517391
vt 0.527489 0.517253
vt 0.527521 0.512716
vt 0.527628 0.512653
vt 0.527864 0.509874
vt 0.528368 0.509377
vt 0.527489 0.510496
vt 0.527631 0.510634
vt 0.528136 0.510138
vt 0.528511 0.509515
vt 0.528519 0.511100
vt 0.004549 0.327353
vt 0.004724 0.327180
vt 0.004579 0.326610
vt 0.004468 0.327617
vt 0.004418 0.327569
vt 0.004549 0.326573
vt 0.004562 0.326576
vt 0.004593 0.326612
vt 0.004774 0.327228
vt 0.004643 0.327445
vt 0.527864 0.517156
vt 0.004468 0.329968
vt 0.004418 0.329920
vt 0.528368 0.517185
vt 0.528511 0.517323
vt 0.528136 0.517420
vt 0.528515 0.510308
vt 0.528382 0.512846
vt 0.528592 0.512727
s 1
f 17/1/1 23/2/1 9/3/1
f 20/4/2 12/5/2 24/6/2 25/7/2
f 19/8/3 8/9/3 2/10/3 18/11/3
f 23/2/4 24/6/4 12/5/4 9/3/4
f 7/12/5 1/13/5 10/14/6 11/15/7
f 22/16/8 17/1/8 9/3/8 13/17/8
f 11/15/7 10/14/6 14/18/9 15/19/9
f 21/20/10 16/21/10 26/22/10
f 9/3/11 12/5/11 26/22/11 13/17/11
f 22/23/12 13/24/12 4/25/12
f 15/26/13 14/27/13 3/28/13 5/29/13
f 6/30/14 16/31/14 21/32/14
f 13/24/15 16/31/15 6/30/15 4/25/15
f 1/13/16 18/33/16 17/1/16 10/14/16
f 7/34/3 19/8/3 18/11/3 1/35/3
f 11/15/17 20/4/17 25/7/17
f 15/19/18 21/20/18 20/4/18 11/15/18
f 5/29/19 6/30/19 21/32/19 15/26/19
f 3/28/20 4/25/20 6/30/20 5/29/20
f 14/27/21 22/23/21 4/25/21 3/28/21
f 10/14/22 17/1/22 22/16/22 14/18/22
f 18/33/23 2/36/23 23/2/23 17/1/23
f 2/36/24 8/37/24 24/6/24 23/2/24
f 25/7/25 24/6/25 8/37/25 19/38/25
f 11/15/26 25/7/26 19/38/26 7/12/26
f 21/20/27 26/22/27 12/5/27 20/4/27
f 13/17/28 26/22/28 16/21/28
f 43/1/29 49/2/29 35/3/29
f 46/4/30 38/5/30 50/6/30 51/7/30
f 45/8/31 34/9/31 28/10/31 44/11/31
f 49/2/32 50/6/32 38/5/32 35/3/32
f 33/12/33 27/13/33 36/14/33 37/15/33
f 48/16/34 43/1/34 35/3/34 39/17/34
f 37/15/35 36/14/35 40/18/35 41/19/35
f 35/3/36 38/5/36 42/39/36 39/17/36
f 48/23/37 39/24/37 30/25/37
f 41/26/38 40/27/38 29/28/38 31/29/38
f 32/30/39 42/31/39 47/32/39
f 39/24/40 42/31/40 32/30/40 30/25/40
f 27/13/41 44/33/41 43/1/42 36/14/43
f 33/34/31 45/8/31 44/11/31 27/35/31
f 37/15/44 46/4/44 51/7/44
f 41/19/45 47/20/45 46/4/45 37/15/45
f 31/29/46 32/30/46 47/32/46 41/26/46
f 29/28/47 30/25/47 32/30/47 31/29/47
f 40/27/48 48/23/48 30/25/48 29/28/48
f 36/14/43 43/1/42 48/16/49 40/18/49
f 44/33/50 28/36/50 49/2/50 43/1/50
f 28/36/51 34/37/51 50/6/51 49/2/51
f 51/7/52 50/6/52 34/37/52 45/38/52
f 37/15/53 51/7/53 45/38/53 33/12/53
f 47/20/54 42/39/54 38/5/54 46/4/54
f 68/1/55 74/2/55 78/40/55
f 76/7/56 77/41/56 75/6/56
f 70/8/57 59/9/57 53/10/57 69/11/57
f 74/2/58 75/6/58 77/41/58 78/40/58
f 58/12/59 52/13/59 61/14/59 62/15/59
f 73/16/60 68/1/60 60/3/60 64/17/60
f 62/15/61 61/14/61 65/18/61 66/19/61
f 60/3/62 63/5/62 67/39/62 64/17/62
f 73/23/63 64/24/63 55/25/63
f 66/26/64 65/27/64 54/28/64 56/29/64
f 57/30/65 67/31/65 72/32/65
f 64/24/66 67/31/66 57/30/66 55/25/66
f 52/13/67 69/33/67 68/1/67 61/14/67
f 58/34/57 70/8/57 69/11/57 52/35/57
f 62/15/68 71/4/68 76/7/68
f 66/19/69 72/20/69 71/4/69 62/15/69
f 56/29/70 57/30/70 72/32/70 66/26/70
f 54/28/71 55/25/71 57/30/71 56/29/71
f 65/27/72 73/23/72 55/25/72 54/28/72
f 61/14/73 68/1/73 73/16/73 65/18/73
f 69/33/74 53/36/74 74/2/74 68/1/74
f 53/36/75 59/37/75 75/6/75 74/2/75
f 76/7/76 75/6/76 59/37/76 70/38/76
f 62/15/77 76/7/77 70/38/77 58/12/77
f 72/20/78 67/39/78 63/5/78 71/4/78
f 71/4/79 63/5/79 77/41/79 76/7/79
f 78/40/80 77/41/80 63/5/80 60/3/80
f 68/1/81 78/40/81 60/3/81
f 95/1/82 101/2/82 87/3/82
f 98/4/83 90/5/83 102/6/83 103/7/83
f 97/8/84 86/9/84 80/10/84 96/11/84
f 101/2/85 102/6/85 90/5/85 87/3/85
f 85/12/86 79/13/86 88/14/86 89/15/86
f 100/16/87 95/1/87 87/3/87 91/17/87
f 89/15/88 88/14/88 92/18/88 93/19/88
f 99/20/89 94/21/89 104/22/89
f 87/3/90 90/5/90 104/22/90 91/17/90
f 100/23/91 91/24/91 82/25/91
f 93/26/92 92/27/92 81/28/92 83/29/92
f 84/30/93 94/31/93 99/32/93
f 91/24/94 94/31/94 84/30/94 82/25/94
f 79/13/95 96/33/95 95/1/95 88/14/95
f 85/34/84 97/8/84 96/11/84 79/35/84
f 89/15/96 98/4/96 103/7/96
f 93/19/97 99/20/97 98/4/97 89/15/97
f 83/29/98 84/30/98 99/32/98 93/26/98
f 81/28/99 82/25/99 84/30/99 83/29/99
f 92/27/100 100/23/100 82/25/100 81/28/100
f 88/14/101 95/1/101 100/16/101 92/18/101
f 96/33/102 80/36/102 101/2/102 95/1/102
f 80/36/103 86/37/103 102/6/103 101/2/103
f 103/7/104 102/6/104 86/37/104 97/38/104
f 89/15/105 103/7/105 97/38/105 85/12/105
f 99/20/106 104/22/106 90/5/106 98/4/106
f 91/17/107 104/22/107 94/21/107
f 121/1/108 127/2/108 113/3/108
f 124/4/109 116/5/109 128/6/109 129/7/109
f 123/8/110 112/9/110 106/10/110 122/11/110
f 127/2/111 128/6/111 116/5/111 113/3/111
f 111/12/112 105/13/112 114/14/112 115/15/112
f 126/16/113 121/1/113 113/3/113 117/17/113
f 115/15/114 114/14/114 118/18/114 119/19/114
f 113/3/115 116/5/115 120/39/115 117/17/115
f 126/23/116 117/24/116 108/25/116
f 119/26/117 118/27/117 107/28/117 109/29/117
f 110/30/118 120/31/118 125/32/118
f 117/24/119 120/31/119 110/30/119 108/25/119
f 105/13/120 122/33/120 121/1/120 114/14/120
f 111/34/110 123/8/110 122/11/110 105/35/110
f 115/15/121 124/4/121 129/7/121
f 119/19/122 125/20/122 124/4/122 115/15/122
f 109/29/123 110/30/123 125/32/123 119/26/123
f 107/28/124 108/25/124 110/30/124 109/29/124
f 118/27/125 126/23/125 108/25/125 107/28/125
f 114/14/126 121/1/126 126/16/126 118/18/126
f 122/33/127 106/36/127 127/2/127 121/1/127
f 106/36/128 112/37/128 128/6/128 127/2/128
f 129/7/129 128/6/129 112/37/129 123/38/129
f 115/15/130 129/7/130 123/38/130 111/12/130
f 125/20/131 120/39/131 116/5/131 124/4/131
f 146/1/132 152/2/132 138/3/132
f 149/4/133 141/5/133 153/6/133 154/7/133
f 148/8/134 137/9/135 131/10/135 147/11/134
f 152/2/136 153/6/136 141/5/136 138/3/136
f 136/12/137 130/13/137 139/14/137 140/15/137
f 151/16/138 146/1/138 138/3/138 142/17/138
f 140/15/139 139/14/139 143/18/139 144/19/139
f 150/20/140 145/21/140 155/22/140
f 138/3/141 141/5/141 155/22/141 142/17/141
f 151/23/142 142/24/142 133/25/142
f 144/26/143 143/27/143 132/28/143 134/29/143
f 135/30/144 145/31/144 150/32/144
f 142/24/145 145/31/145 135/30/145 133/25/145
f 130/13/146 147/33/146 146/1/146 139/14/146
f 136/34/134 148/8/134 147/11/134 130/35/134
f 140/15/147 149/4/147 154/7/147
f 144/19/148 150/20/148 149/4/148 140/15/148
f 134/29/149 135/30/149 150/32/149 144/26/149
f 132/28/150 133/25/150 135/30/150 134/29/150
f 143/27/151 151/23/151 133/25/151 132/28/151
f 139/14/152 146/1/152 151/16/152 143/18/152
f 147/33/153 131/36/153 152/2/153 146/1/153
f 131/36/154 137/37/154 153/6/154 152/2/154
f 154/7/155 153/6/155 137/37/155 148/38/155
f 140/15/156 154/7/156 148/38/156 136/12/156
f 150/20/157 155/22/157 141/5/157 149/4/157
f 142/17/158 155/22/158 145/21/158
f 172/1/159 178/2/159 164/3/159
f 175/4/160 167/5/160 179/6/160 180/7/160
f 174/8/161 163/9/161 157/10/161 173/11/161
f 178/2/162 179/6/162 167/5/162 164/3/162
f 162/12/163 156/13/163 165/14/163 166/15/163
f 177/16/164 172/1/164 164/3/164 168/17/164
f 166/15/165 165/14/165 169/18/165 170/19/165
f 176/20/166 171/21/166 181/22/166
f 164/3/167 167/5/167 181/22/167 168/17/167
f 177/23/168 168/24/168 159/25/168
f 170/26/169 169/27/169 158/28/169 160/29/169
f 161/30/170 171/31/170 176/32/170
f 168/24/171 171/31/171 161/30/171 159/25/171
f 156/13/172 173/33/172 172/1/173 165/14/174
f 162/34/161 174/8/161 173/11/161 156/35/161
f 166/15/175 175/4/175 180/7/175
f 170/19/176 176/20/176 175/4/176 166/15/176
f 160/29/177 161/30/177 176/32/177 170/26/177
f 158/28/178 159/25/178 161/30/178 160/29/178
f 169/27/179 177/23/179 159/25/179 158/28/179
f 165/14/174 172/1/173 177/16/180 169/18/180
f 173/33/181 157/36/181 178/2/181 172/1/181
f 157/36/182 163/37/182 179/6/182 178/2/182
f 180/7/183 179/6/183 163/37/183 174/38/183
f 166/15/184 180/7/184 174/38/184 162/12/184
f 176/20/185 181/22/185 167/5/185 175/4/185
f 168/17/186 181/22/186 171/21/186
f 198/1/187 204/2/187 190/3/187
f 201/4/188 193/5/188 205/6/188 206/7/188
f 200/8/189 189/9/189 183/10/189 199/11/189
f 204/2/190 205/6/190 193/5/190 190/3/190
f 188/12/191 182/13/191 191/14/191 192/15/191
f 203/16/192 198/1/192 190/3/192 194/17/192
f 192/15/193 191/14/193 195/18/193 196/19/193
f 190/3/194 193/5/194 197/39/194 194/17/194
f 203/23/195 194/24/195 185/25/195
f 196/26/196 195/27/196 184/28/196 186/29/196
f 187/30/197 197/31/197 202/32/197
f 194/24/198 197/31/198 187/30/198 185/25/198
f 182/13/199 199/33/199 198/1/199 191/14/199
f 188/34/189 200/8/189 199/11/189 182/35/189
f 192/15/200 201/4/200 206/7/200
f 196/19/201 202/20/201 201/4/201 192/15/201
f 186/29/202 187/30/202 202/32/202 196/26/202
f 184/28/203 185/25/203 187/30/203 186/29/203
f 195/27/204 203/23/204 185/25/204 184/28/204
f 191/14/205 198/1/205 203/16/205 195/18/205
f 199/33/206 183/36/206 204/2/206 198/1/206
f 183/36/207 189/37/207 205/6/207 204/2/207
f 206/7/208 205/6/208 189/37/208 200/38/208
f 192/15/209 206/7/209 200/38/209 188/12/209
f 202/20/210 197/39/210 193/5/210 201/4/210
