# Blender 5.0.1
# www.blender.org
mtllib log_seat.mtl
o SM_Prop_LogSeat_01.001
v -1.254055 0.263957 0.231325
v -1.254069 0.263900 -0.232626
v 1.254176 0.267003 0.233395
v 1.254163 0.267059 -0.232120
v -1.223293 0.274098 -0.000000
v 1.244884 0.217174 0.003486
v -1.256292 0.254721 0.271561
v -1.294160 0.098370 0.238279
v 1.293657 0.101361 0.238279
v 1.256358 0.257850 0.271561
v -1.319346 -0.005618 0.091015
v 1.318464 -0.002717 0.091015
v -1.319346 -0.005618 -0.091015
v 1.318464 -0.002717 -0.091015
v -1.294160 0.098370 -0.238279
v 1.293657 0.101361 -0.238279
v -1.256292 0.254721 -0.271561
v 1.256358 0.257849 -0.271561
v -0.077744 0.031408 -0.071487
v -0.155826 0.114724 -0.187156
v -0.264663 0.239994 -0.213297
v -0.263541 0.256395 -0.183688
v 0.073688 0.256395 0.183688
v 0.072566 0.239994 0.213297
v -0.056048 0.114724 0.187156
v -0.071785 0.031408 0.071487
v -0.094926 0.256395 -0.000000
v -1.287189 0.127154 0.203137
v -1.309247 0.036080 0.078130
v -1.309247 0.036080 -0.078130
v -1.287189 0.127154 -0.203137
v 1.286790 0.130171 0.203137
v 1.308517 0.039017 0.078130
v 1.308517 0.039017 -0.078130
v 1.286790 0.130171 -0.203137
v -1.292555 0.250371 0.271561
v -1.313860 0.103141 0.238279
v -1.290318 0.259608 0.231325
v -1.306889 0.131926 0.203137
v -1.399129 0.013705 0.091015
v -1.389030 0.055403 0.078130
v -1.373199 0.007425 -0.091015
v -1.363099 0.049123 -0.078130
v -1.313860 0.103141 -0.238279
v -1.306889 0.131926 -0.203137
v -1.321488 0.231902 -0.271561
v -1.319265 0.241081 -0.232626
v 1.309179 0.243403 0.271561
v 1.349360 0.114638 0.238279
v 1.342493 0.143448 0.203137
v 1.306998 0.252556 0.233395
v 1.338181 0.001982 0.091015
v 1.328234 0.043717 0.078130
v 1.368669 0.009249 -0.091015
v 1.358722 0.050983 -0.078130
v 1.328022 0.109552 -0.238279
v 1.321156 0.138362 -0.203137
v 1.309324 0.262778 -0.271561
v 1.307128 0.271988 -0.232120
v 1.202549 0.272078 0.113288
v -0.010619 0.256395 0.091844
v -1.247738 0.269016 0.116510
v 1.236999 0.272163 -0.088999
v -0.179233 0.256395 -0.091844
v -1.202428 0.269045 -0.112903
v -1.257373 0.234370 0.137667
v -1.250555 0.266760 0.167709
v -1.055224 0.267052 0.112672
v 0.993872 0.271301 -0.133083
v 1.250258 0.270221 -0.160747
v 1.259279 0.230513 -0.142201
v 1.140332 0.275929 -0.000000
v 1.217701 0.275826 0.031078
v 1.227868 0.275581 -0.029111
vn -0.0420 -0.1931 0.9803
vn -0.0291 -0.8145 0.5795
vn -0.0245 -0.9997 0.0004
vn -0.0279 -0.8192 -0.5729
vn -0.0355 -0.2238 -0.9740
vn -0.9406 0.3397 -0.0000
vn -0.8824 0.2931 0.3680
vn 0.8832 0.2917 -0.3673
vn -0.0274 0.9352 0.3530
vn -0.0210 0.9373 -0.3480
vn 0.0355 -0.8106 -0.5846
vn 0.0505 -0.1940 -0.9797
vn 0.0295 0.9360 -0.3508
vn 0.0216 0.9382 0.3454
vn 0.0416 -0.2298 0.9724
vn 0.0339 -0.8165 0.5764
vn 0.0297 -0.9996 -0.0005
vn 0.0144 0.9995 -0.0291
vn 0.0117 0.9995 -0.0310
vn 0.0142 0.9995 -0.0292
vn 0.2699 0.5280 0.8052
vn -0.1976 0.6887 -0.6976
vn -0.0119 0.9994 0.0316
vn -0.0132 0.9994 0.0306
vn -0.0124 0.9994 0.0312
vn -0.9881 0.1466 -0.0468
vn -0.8680 0.4055 0.2866
vn -0.9600 0.2325 -0.1558
vn -0.9251 0.3398 -0.1698
vn -0.9883 -0.0447 0.1456
vn 0.9550 0.2946 0.0347
vn 0.9776 0.1116 -0.1784
vn 0.9565 0.2280 0.1822
vn 0.9560 0.2823 -0.0800
vn 0.9905 0.1253 0.0565
vn -0.0016 -0.2139 0.9769
vn -0.1163 0.9694 0.2161
vn 0.0016 0.2082 -0.9781
vn -0.1904 -0.7863 0.5878
vn 0.1883 0.7777 -0.5998
vn -0.2354 -0.9719 -0.0000
vn 0.2354 0.9719 -0.0000
vn -0.1904 -0.7863 -0.5878
vn 0.1883 0.7777 0.5998
vn 0.0493 -0.2320 -0.9715
vn -0.0504 0.2369 0.9702
vn -0.3237 0.9249 -0.1996
vn -0.0025 -0.2279 0.9737
vn 0.0026 0.2396 -0.9709
vn 0.2579 0.9428 0.2114
vn 0.1876 -0.7870 0.5878
vn -0.1855 0.7783 -0.5998
vn 0.2319 -0.9728 -0.0000
vn -0.2319 0.9728 -0.0000
vn 0.1876 -0.7870 -0.5878
vn -0.1855 0.7783 0.5998
vn 0.0308 -0.2047 -0.9783
vn -0.0901 0.9687 -0.2312
vn -0.0307 0.2044 0.9784
vn 0.3189 0.5204 -0.7921
vn 0.0130 0.9997 0.0206
vn 0.0108 0.9997 0.0205
vn 0.0122 0.9997 0.0206
vn 0.9698 0.2401 0.0424
vn -0.0099 0.9994 -0.0328
vn 0.0111 0.9994 -0.0314
vn -0.9097 0.4150 -0.0141
vn -0.9485 0.2760 -0.1552
vn -0.9690 0.2435 -0.0426
vn 0.0084 0.9998 0.0204
vn 0.0223 0.5165 0.8560
vn -0.9660 0.2580 -0.0175
vn 0.1034 0.8037 -0.5859
vn 0.0982 0.4393 0.8929
vn 0.9669 0.2545 0.0175
vn -0.0147 0.9995 0.0296
vn 0.9124 0.4092 0.0074
vn 0.9417 0.3364 -0.0000
vn 0.9461 0.3006 0.1209
vn -0.0129 0.9999 -0.0094
vt 0.035749 0.275392
vt 0.037197 0.328909
s 1
f 24/1/1 25/1/1 9/1/1 10/1/1
f 25/1/2 26/1/2 12/1/2 9/1/2
f 26/1/3 19/1/3 14/1/3 12/1/3
f 19/1/4 20/1/4 16/1/4 14/1/4
f 20/1/5 21/1/5 18/1/5 16/1/5
f 30/2/6 29/2/6 5/2/6
f 31/2/7 65/2/7 2/2/7
f 32/2/8 60/2/8 3/2/8
f 3/1/9 23/1/9 24/1/9 10/1/9
f 21/1/10 22/1/10 4/1/10 18/1/10
f 13/1/11 15/1/11 20/1/11 19/1/11
f 15/1/12 17/1/12 21/1/12 20/1/12
f 2/1/13 22/1/13 21/1/13 17/1/13
f 24/1/14 23/1/14 1/1/14 7/1/14
f 7/1/15 8/1/15 25/1/15 24/1/15
f 8/1/16 11/1/16 26/1/16 25/1/16
f 11/1/17 13/1/17 19/1/17 26/1/17
f 5/2/18 27/2/18 64/2/19 65/2/20
f 74/2/21 72/2/21 6/2/21
f 67/2/22 68/2/22 66/2/22
f 23/2/23 3/2/23 60/2/24 61/2/25
f 37/1/26 36/1/26 38/1/26 39/1/26
f 40/1/27 37/1/27 39/1/27 41/1/27
f 42/1/28 40/1/28 41/1/28 43/1/28
f 44/1/29 42/1/29 43/1/29 45/1/29
f 46/1/30 44/1/30 45/1/30 47/1/30
f 48/1/31 49/1/31 50/1/31 51/1/31
f 49/1/32 52/1/32 53/1/32 50/1/32
f 52/1/33 54/1/33 55/1/33 53/1/33
f 54/1/34 56/1/34 57/1/34 55/1/34
f 56/1/35 58/1/35 59/1/35 57/1/35
f 8/1/36 7/1/36 36/1/36 37/1/36
f 7/1/37 1/1/37 38/1/37 36/1/37
f 1/1/38 28/1/38 39/1/38 38/1/38
f 11/1/39 8/1/39 37/1/39 40/1/39
f 28/1/40 29/1/40 41/1/40 39/1/40
f 13/1/41 11/1/41 40/1/41 42/1/41
f 29/1/42 30/1/42 43/1/42 41/1/42
f 15/1/43 13/1/43 42/1/43 44/1/43
f 30/1/44 31/1/44 45/1/44 43/1/44
f 17/1/45 15/1/45 44/1/45 46/1/45
f 31/1/46 2/1/46 47/1/46 45/1/46
f 2/1/47 17/1/47 46/1/47 47/1/47
f 10/1/48 9/1/48 49/1/48 48/1/48
f 32/1/49 3/1/49 51/1/49 50/1/49
f 3/1/50 10/1/50 48/1/50 51/1/50
f 9/1/51 12/1/51 52/1/51 49/1/51
f 33/1/52 32/1/52 50/1/52 53/1/52
f 12/1/53 14/1/53 54/1/53 52/1/53
f 34/1/54 33/1/54 53/1/54 55/1/54
f 14/1/55 16/1/55 56/1/55 54/1/55
f 35/1/56 34/1/56 55/1/56 57/1/56
f 16/1/57 18/1/57 58/1/57 56/1/57
f 18/1/58 4/1/58 59/1/58 58/1/58
f 4/1/59 35/1/59 57/1/59 59/1/59
f 72/2/60 73/2/60 6/2/60
f 62/2/61 68/2/62 61/2/63 27/2/61 5/2/61
f 70/2/64 71/2/64 35/2/64 4/2/64
f 64/2/65 69/2/65 70/2/65 4/2/65 22/2/65
f 65/2/20 64/2/19 22/2/66 2/2/66
f 31/2/67 30/2/67 5/2/67 65/2/67
f 29/2/68 66/2/68 62/2/68 5/2/68
f 28/2/69 1/2/69 67/2/69 66/2/69
f 23/2/70 61/2/63 68/2/62 67/2/70 1/2/70
f 66/2/71 68/2/71 62/2/71
f 28/2/72 66/2/72 29/2/72
f 71/2/73 69/2/73 63/2/73
f 70/2/74 69/2/74 71/2/74
f 71/2/75 34/2/75 35/2/75
f 61/2/25 60/2/24 73/2/76 72/2/76 27/2/76
f 6/2/77 73/2/77 60/2/77 32/2/77 33/2/77
f 33/2/78 34/2/78 6/2/78
f 74/2/79 6/2/79 34/2/79 71/2/79 63/2/79
f 27/2/80 72/2/80 74/2/80 63/2/80 69/2/80 64/2/80
