# Blender 4.4.0
# www.blender.org
mtllib poster.mtl
o Cube
v -0.296113 -0.582188 0.013484
v -0.296113 0.582188 0.013484
v -0.321345 -0.631797 -0.024486
v -0.321345 0.631797 -0.024486
v 0.296113 -0.582188 0.013484
v 0.296113 0.582188 0.013484
v 0.321345 -0.631797 -0.024486
v 0.321345 0.631797 -0.024486
v -0.321345 -0.631797 0.024486
v -0.321345 0.631797 0.024486
v 0.321345 0.631797 0.024486
v 0.321345 -0.631797 0.024486
vn -1.0000 -0.0000 -0.0000
vn -0.0000 -0.0000 -1.0000
vn 1.0000 -0.0000 -0.0000
vn -0.0000 -0.0000 1.0000
vn -0.0000 -1.0000 -0.0000
vn -0.0000 1.0000 -0.0000
vn 0.3997 -0.0000 0.9167
vn -0.3997 -0.0000 0.9167
vn -0.0000 0.2165 0.9763
vn -0.0000 -0.2165 0.9763
vt 0.332087 0.666667
vt 0.332087 0.333333
vt 0.664174 0.333333
vt 0.664174 0.666667
vt 0.333333 0.333333
vt 0.000000 0.333333
vt 0.000000 0.000000
vt 0.333333 0.000000
vt 0.664174 0.666667
vt 0.664174 0.333333
vt 0.996261 0.333333
vt 0.996261 0.666667
vt 0.797292 -0.001411
vt 0.797898 0.999596
vt 0.219615 1.003884
vt 0.219009 0.002876
vt 0.665420 0.000000
vt 0.665420 0.333333
vt 0.333333 0.333333
vt 0.333333 0.000000
vt 0.000000 0.666667
vt 0.000000 0.333333
vt 0.332087 0.333333
vt 0.332087 0.666667
vt 0.151474 0.986913
vt 0.151474 0.679753
vt 0.227211 0.666667
vt 0.227211 1.000000
vt 0.302948 0.679753
vt 0.302948 0.986913
vt 0.000000 0.986913
vt 0.000000 0.679753
vt 0.075737 0.666667
vt 0.075737 1.000000
vt 0.151474 0.679753
vt 0.151474 0.986913
vt 0.075737 1.000000
vt 0.075737 0.666667
s 0
usemtl PosterFrame
f 9/1/1 10/2/1 4/3/1 3/4/1
f 3/5/2 4/6/2 8/7/2 7/8/2
f 7/9/3 8/10/3 11/11/3 12/12/3
f 3/17/5 7/18/5 12/19/5 9/20/5
f 8/21/6 4/22/6 10/23/6 11/24/6
f 1/25/7 2/26/7 10/27/7 9/28/7
f 6/29/8 5/30/8 12/28/8 11/27/8
f 5/31/9 1/32/9 9/33/9 12/34/9
f 2/35/10 6/36/10 11/37/10 10/38/10
usemtl Poster
f 5/13/4 6/14/4 2/15/4 1/16/4
